<?xml version="1.0" encoding="utf-8"?>
<!-- Generator: Adobe Illustrator 21.0.2, SVG Export Plug-In . SVG Version: 6.00 Build 0)  -->
<svg version="1.1" xmlns="http://www.w3.org/2000/svg" xmlns:xlink="http://www.w3.org/1999/xlink" x="0px" y="0px"
	 viewBox="0 0 180 180" style="enable-background:new 0 0 180 180;" xml:space="preserve">
<style type="text/css">
	.st0{fill:#C4ABA3;}
	.st1{opacity:0.41;}
	.st2{fill:url(#SVGID_1_);}
	.st3{fill:url(#SVGID_2_);}
	.st4{fill:#967248;}
	.st5{fill:#231F20;}
	.st6{fill:#FDD4C8;}
	.st7{opacity:0.32;fill:url(#SVGID_3_);enable-background:new    ;}
	.st8{opacity:0.31;fill:url(#SVGID_4_);enable-background:new    ;}
	.st9{opacity:0.31;fill:url(#SVGID_5_);enable-background:new    ;}
	.st10{opacity:0.58;}
	.st11{fill:url(#SVGID_6_);}
	.st12{fill:url(#SVGID_7_);}
	.st13{fill:#FFFFFF;}
	.st14{opacity:0.49;}
	.st15{fill:#FCE6E0;}
	.st16{fill:#E0C799;}
</style>
<g id="mouse">
	<g id="Layer_2_1_">
		<path class="st0" d="M126.3,88.1c-2,0.3-3.8,1.7-4.5,3.6c-1.3,3.3-2,5.8,0.7,8.2c2,1.7,4.5,2.7,7.1,2.9c0,0-3.9,8.3-3.9,14.9
			s0.4,13,6.2,14.5c5.9,1.5,8.9,1.8,11,1.8c2.1,0,9.1-0.2,12.2-3.7c3.1-3.5,2.5-9.7,2-13.7c-0.5-4-1.8-10.3-3.1-12.2l-1.3-1.9
			c0,0,3.9,0,5.5-2.1c1.5-2.1,2.6-3.9,2.5-6c0-2-2.3-7-5.1-7.4c-2.3-0.4-4.7,0.5-6.1,2.4c-1.1,1.5-2.2,3.1-3,4.8
			c-1.6-0.4-3.3-0.7-5-0.7c-1.8,0.2-4.4,0.7-5.4,1.4c0,0-2.9-4.6-5-5.5C128.8,88.5,127.6,87.7,126.3,88.1z"/>
		<path d="M142.8,134.1c-1.8,0-4.6-0.2-11-1.8c-2.7-0.7-4.4-2.4-5.4-5.4c-0.9-2.7-0.9-6-0.9-9.2c0.1-6.2,3.6-14.1,3.9-14.8h-0.2
			c-2.5-0.3-4.9-1.3-6.8-2.9c-2.8-2.5-2-5.1-0.7-8.3c0.8-1.9,2.5-3.3,4.6-3.6c1.1-0.3,2.1,0.2,3.6,0.9l1.1,0.5c2,0.9,4.7,5.1,5,5.5
			c0.9-0.7,3.4-1.2,5.4-1.4c1.7,0,3.3,0.2,4.9,0.7c0.9-1.7,1.9-3.3,3-4.8c1.4-1.9,3.8-2.8,6.2-2.4c2.9,0.4,5.1,5.5,5.1,7.4
			c0.1,1.9-0.9,3.7-2.6,6c-0.9,1-2,1.6-3.3,1.9c-0.7,0.2-1.4,0.2-2.1,0.3l1.2,1.9c1.3,2,2.6,8.3,3.1,12.2c0.4,3.3,1.2,10-2,13.7
			C153.8,131.7,150.6,134.1,142.8,134.1z M127,88c-0.2,0-0.5,0-0.7,0.1l0,0c-2,0.3-3.7,1.7-4.5,3.6c-1.3,3.1-2.1,5.7,0.7,8.2
			c1.9,1.6,4.3,2.6,6.8,2.9h0.2h0.1v0.1c0,0.1-3.9,8.4-3.9,14.8c0,3.2,0,6.5,0.9,9.1c0.9,2.9,2.7,4.6,5.3,5.3
			c6.4,1.6,9.2,1.8,11,1.8c1.9,0,3.8-0.2,5.7-0.5c3-0.6,5.1-1.7,6.4-3.2c3.3-3.7,2.4-10.4,2-13.7c-0.5-3.8-1.8-10.2-3.1-12.2l-1.3-2
			h0.1c0.7,0,1.4-0.1,2.2-0.3c1.3-0.2,2.4-0.9,3.3-1.8c1.6-2.2,2.6-4,2.5-5.9c-0.1-1.9-2.2-6.9-5.1-7.3c-2.3-0.4-4.7,0.5-6.1,2.3
			c-1.1,1.5-2.1,3.1-3,4.8l0,0l0,0c-1.6-0.4-3.3-0.7-4.9-0.7c-2,0.2-4.5,0.7-5.4,1.4l0,0l0,0c0,0-3-4.6-5-5.5L130,89
			C129.1,88.5,128,88.1,127,88z"/>
		<g class="st1">
			<g>
				
					<radialGradient id="SVGID_1_" cx="153.7072" cy="87.557" r="5.6103" gradientTransform="matrix(1 0 0 -1 0 182)" gradientUnits="userSpaceOnUse">
					<stop  offset="0.37" style="stop-color:#FF8EA5"/>
					<stop  offset="1" style="stop-color:#FFCBD6"/>
				</radialGradient>
				<path class="st2" d="M158.5,94.7c0,3.3-2.2,6.1-4.8,6.1c-1.7,0-3.7-0.8-4.3-2.5c-0.3-1.1-0.5-2.3-0.5-3.5c0-3.3,2.4-6.5,5.1-6.5
					c1,0,2,0.2,2.9,0.7C158.3,89.7,158.5,92.6,158.5,94.7z"/>
			</g>
		</g>
		<g class="st1">
			<g>
				
					<radialGradient id="SVGID_2_" cx="-228.631" cy="-167.1958" r="5.7675" gradientTransform="matrix(0.6015 -0.7988 -0.7988 -0.6015 131.9302 -187.838)" gradientUnits="userSpaceOnUse">
					<stop  offset="0.37" style="stop-color:#FF8EA5"/>
					<stop  offset="1" style="stop-color:#FFCBD6"/>
				</radialGradient>
				<path class="st3" d="M131.2,91.3c1.8,1.8,2.7,4.3,2.3,6.8c-0.1,0.5-0.4,0.9-0.7,1.3c-1,1.3-2.9,2.5-4.6,2
					c-1.1-0.4-2.2-1-3.1-1.7c-2.7-2-3.7-5.9-2.1-8c0.6-0.8,1.4-1.5,2.3-1.9C127.4,88.8,129.5,90,131.2,91.3z"/>
			</g>
		</g>
		<path class="st4" d="M145.6,116c-2.3-1.3-5.1-1.8-7.7-1.3c-1,0.6-1.5,1.8-1.5,2.9c0.1,2.1,0,5.3,1.9,6.6L145.6,116z"/>
		<path class="st5" d="M138.4,124.2L138.4,124.2c-1.7-1.2-1.8-4.1-1.9-6.2c0-0.2,0-0.3,0-0.4c0-0.8,0.2-1.6,0.7-2.3
			c0.2-0.3,0.5-0.5,0.8-0.7l0,0c2.6-0.4,5.4,0.1,7.7,1.4h0l0,0L138.4,124.2z M138,114.7c-1,0.6-1.5,1.7-1.4,2.9c0,0.1,0,0.3,0,0.4
			c0.1,2.1,0.2,4.9,1.8,6.1l7.2-8.1C143.2,114.7,140.6,114.2,138,114.7L138,114.7z"/>
		<path class="st6" d="M148.2,133.5c0.9,0.7,1.9,1.2,3,1.3c1.4,0.1,2.3-1.1,2.1-1.6c-0.3-0.4-0.6-0.7-1-1
			C150.9,132.8,149.6,133.2,148.2,133.5z"/>
		<path d="M151.3,134.9L151.3,134.9c-1.2-0.2-2.2-0.6-3.1-1.4l0,0h0c1.4-0.3,2.7-0.7,4.1-1.3l0,0c0.4,0.3,0.7,0.6,1,1
			c0.1,0.2,0.1,0.5-0.1,0.7C152.7,134.6,152,134.9,151.3,134.9z M148.3,133.5c0.8,0.7,1.9,1.1,2.9,1.3h0.1c0.7,0,1.4-0.3,1.8-0.9
			c0.1-0.2,0.2-0.4,0.1-0.7c-0.2-0.4-0.6-0.7-1-1C151,132.8,149.6,133.2,148.3,133.5z"/>
		<path class="st6" d="M131.8,132.2c-0.5,0.2-0.8,0.8-0.9,1.3l0.4,0.3v0.6h0.4l0.4,0.4l0.6-0.1c0,0,2.3,0,3.3-1.6
			C134.6,133,133.2,132.6,131.8,132.2z"/>
		<path d="M132.2,134.9L132.2,134.9l-0.4-0.4h-0.5v-0.7l-0.4-0.3l0,0c0-0.6,0.4-1.1,0.9-1.3l0,0c1.4,0.4,2.8,0.7,4.2,1l0,0l0,0
			c-1,1.6-3.3,1.6-3.3,1.6L132.2,134.9z M131.4,134.5h0.4l0.4,0.4l0.5-0.1c0,0,2.2,0,3.3-1.5c-1.4-0.2-2.8-0.6-4.2-1
			c-0.5,0.2-0.8,0.7-0.9,1.3l0.4,0.3L131.4,134.5z"/>
		<path class="st6" d="M156.3,128.2c1.1,0.7,2.4,1.3,3.7,1.6c1.5,0.2,4.9,0.7,5.7,2.5s1.4,4.8-1.2,6.3s-6.9,1.3-8.2,1.5
			c-1.2,0.2-5.8,0.6-7,1.7c-1.2,1.1,0.4,0.6,0.4,0.6c1.9-0.7,3.9-1,5.9-1c2.6,0.2,9.1,0.5,10.8-1.3c1.7-1.8,3-3.6,2.3-7.8
			s-6.5-4.7-6.5-4.7s-4.4-1.1-5-2.2L156.3,128.2z"/>
		<path d="M149.1,142.5c-0.1,0-0.2,0-0.2-0.1c0-0.1,0.1-0.3,0.4-0.7c0.9-0.9,3.8-1.2,5.7-1.5c0.6-0.1,1-0.1,1.3-0.2
			c0.5-0.1,1-0.1,1.6-0.1c1.9-0.1,4.7-0.3,6.6-1.4c2.9-1.7,1.7-5.2,1.2-6.3c-0.8-1.8-4.1-2.3-5.7-2.5l0,0c-1.3-0.3-2.6-0.9-3.7-1.6
			l0,0l0,0l0.9-2.9l0,0c0.3,0.5,1.2,1,2.8,1.5c1.2,0.4,2.2,0.7,2.3,0.7c1,0.1,2,0.4,3,0.8c1.8,0.6,3.1,2.1,3.5,4
			c0.7,4.2-0.6,5.9-2.3,7.8c-1.8,1.9-8.7,1.5-10.8,1.3c-1.3-0.1-2.6,0.1-3.9,0.4c-0.7,0.2-1.3,0.4-2,0.6
			C149.5,142.4,149.3,142.5,149.1,142.5z M156.3,128.2c1.1,0.7,2.4,1.3,3.7,1.6l0,0c1.6,0.2,4.9,0.7,5.7,2.5
			c0.5,1.1,1.7,4.7-1.2,6.3c-1.9,1.1-4.7,1.2-6.6,1.4c-0.5,0-1,0.1-1.6,0.1c-0.3,0.1-0.8,0.1-1.3,0.2c-1.9,0.3-4.7,0.6-5.7,1.5
			c-0.4,0.4-0.5,0.5-0.4,0.6c0,0.1,0.6,0,0.8-0.1c0.6-0.2,1.3-0.4,2-0.6c1.3-0.3,2.6-0.5,3.9-0.4c2.1,0.2,9,0.6,10.7-1.3
			c1.7-1.9,3-3.7,2.3-7.8c-0.4-1.8-1.7-3.3-3.5-3.9c-1-0.4-2-0.6-3-0.8c-0.2,0-4.3-1.1-5-2.2L156.3,128.2z"/>
		
			<radialGradient id="SVGID_3_" cx="158.8437" cy="48.0881" r="9.3245" gradientTransform="matrix(1 0 0 -1 0 182)" gradientUnits="userSpaceOnUse">
			<stop  offset="0.37" style="stop-color:#FBCAC7"/>
			<stop  offset="0.67" style="stop-color:#FBD3C7"/>
			<stop  offset="0.87" style="stop-color:#BDBDBD"/>
			<stop  offset="1" style="stop-color:#858585"/>
		</radialGradient>
		<path class="st7" d="M156.3,128.2c1.1,0.7,2.4,1.3,3.7,1.6c1.5,0.2,4.9,0.7,5.7,2.5s1.4,4.8-1.2,6.3s-6.9,1.3-8.2,1.5
			c-1.2,0.2-5.8,0.6-7,1.7c-1.2,1.1,0.4,0.6,0.4,0.6c1.9-0.7,3.9-1,5.9-1c2.6,0.2,9.1,0.5,10.8-1.3c1.7-1.8,3-3.6,2.3-7.8
			s-6.5-4.7-6.5-4.7s-4.4-1.1-5-2.2L156.3,128.2z"/>
		
			<radialGradient id="SVGID_4_" cx="133.4735" cy="48.4388" r="2.0444" gradientTransform="matrix(1 0 0 -1 0 182)" gradientUnits="userSpaceOnUse">
			<stop  offset="0.33" style="stop-color:#FBB0C7"/>
			<stop  offset="1" style="stop-color:#858585"/>
		</radialGradient>
		<path class="st8" d="M131.8,132.2c-0.5,0.2-0.8,0.8-0.9,1.3l0.4,0.3v0.6h0.4l0.4,0.4l0.6-0.1c0,0,2.3,0,3.3-1.6
			C134.6,133,133.2,132.6,131.8,132.2z"/>
		
			<radialGradient id="SVGID_5_" cx="150.8037" cy="48.4045" r="1.9672" gradientTransform="matrix(1 0 0 -1 0 182)" gradientUnits="userSpaceOnUse">
			<stop  offset="0.33" style="stop-color:#FBB0C7"/>
			<stop  offset="1" style="stop-color:#858585"/>
		</radialGradient>
		<path class="st9" d="M148.3,133.6c0.8,0.7,1.8,1.1,2.9,1.2c1.4,0.1,2.3-1.1,2.1-1.6c-0.2-0.4-0.5-0.7-0.9-0.9
			C151.1,132.9,149.7,133.4,148.3,133.6z"/>
		<path class="st5" d="M133.5,98.4c0-0.7,0-1.4-0.1-2.1c-0.1-0.7-0.2-1.4-0.4-2.1c-0.2-0.7-0.5-1.3-0.9-1.9
			c-0.2-0.3-0.5-0.5-0.7-0.8c-0.3-0.2-0.6-0.4-0.9-0.6c-0.6-0.4-1.2-0.7-1.9-1c-0.6-0.3-1.3-0.4-2-0.5c-0.7,0-1.4,0.2-2,0.6
			c-0.3,0.2-0.6,0.4-0.9,0.6c-0.3,0.2-0.5,0.5-0.7,0.8c0.2-0.3,0.5-0.5,0.7-0.8c0.3-0.3,0.5-0.5,0.9-0.7c0.6-0.4,1.3-0.6,2-0.6
			c0.7,0,1.4,0.2,2.1,0.5c0.7,0.3,1.3,0.6,1.9,1c0.3,0.2,0.6,0.4,0.9,0.6c0.3,0.2,0.5,0.5,0.7,0.8c0.4,0.6,0.7,1.2,0.9,1.9
			C133.5,95.5,133.7,96.9,133.5,98.4z"/>
		<path class="st5" d="M135.2,93.8c0.3,0.3,0.5,0.6,0.7,1c0.1,0.2,0.2,0.3,0.3,0.5c0.1,0.2,0.2,0.4,0.2,0.6c0-0.1-0.1-0.2-0.1-0.3
			l-0.2-0.3l-0.3-0.5C135.6,94.5,135.4,94.2,135.2,93.8z"/>
		<path class="st5" d="M146.9,93.2c-0.1,0.3-0.3,0.6-0.4,0.9l-0.2,0.5c-0.1,0.2-0.2,0.3-0.2,0.5c0-0.2,0.1-0.3,0.2-0.5
			c0.1-0.2,0.1-0.3,0.2-0.5C146.5,93.8,146.7,93.5,146.9,93.2z"/>
		<path class="st5" d="M140.7,108.1c-0.3,0-0.7-0.2-0.9-0.5c-0.1-0.1-0.1-0.2-0.1-0.4c0.1-0.1,0.2-0.2,0.3-0.2h0.1
			c0.2,0,0.6,0,1.1,0c0.2,0,0.3,0,0.4,0.1c0,0.1,0,0.2,0,0.3l0,0c-0.2,0.2-0.5,0.4-0.7,0.6C140.9,108.1,140.8,108.1,140.7,108.1z
			 M140.1,107.1c-0.1,0-0.2,0.1-0.3,0.2c0,0.1,0,0.2,0.1,0.3c0.3,0.4,0.7,0.6,1.1,0.4c0.2-0.2,0.5-0.4,0.7-0.6c0,0,0.1-0.2,0-0.3
			c-0.1-0.1-0.2-0.1-0.3-0.1C140.8,107.1,140.4,107.1,140.1,107.1L140.1,107.1L140.1,107.1z"/>
		<g class="st10">
			
				<radialGradient id="SVGID_6_" cx="140.7186" cy="74.4162" r="0.7785" gradientTransform="matrix(1 0 0 -1 0 182)" gradientUnits="userSpaceOnUse">
				<stop  offset="0.37" style="stop-color:#FF8EA5"/>
				<stop  offset="1" style="stop-color:#FFCBD6"/>
			</radialGradient>
			<path class="st11" d="M140.1,107.1c-0.1,0-0.5,0.2-0.2,0.5c0.3,0.4,0.8,0.6,1.1,0.4c0.2-0.2,0.5-0.4,0.7-0.6c0,0,0.2-0.4-0.3-0.4
				C140.7,107.1,140.2,107.1,140.1,107.1z"/>
			<path class="st5" d="M140.7,108.1c-0.3,0-0.7-0.2-0.9-0.5c-0.1-0.1-0.1-0.2-0.1-0.4c0.1-0.1,0.2-0.2,0.3-0.2h0.1
				c0.2,0,0.6,0,1.1,0c0.2,0,0.3,0,0.4,0.1c0,0.1,0,0.2,0,0.3l0,0c-0.2,0.2-0.5,0.4-0.7,0.6C140.9,108.1,140.8,108.1,140.7,108.1z
				 M140.1,107.1c-0.1,0-0.2,0.1-0.3,0.2c0,0.1,0,0.2,0.1,0.3c0.3,0.4,0.7,0.6,1.1,0.4c0.2-0.2,0.5-0.4,0.7-0.6c0,0,0.1-0.2,0-0.3
				c-0.1-0.1-0.2-0.1-0.3-0.1C140.8,107.1,140.4,107.1,140.1,107.1L140.1,107.1L140.1,107.1z"/>
		</g>
		
			<radialGradient id="SVGID_7_" cx="140.6416" cy="73.3731" r="0.3678" gradientTransform="matrix(1 0 0 -1 0 182)" gradientUnits="userSpaceOnUse">
			<stop  offset="0.37" style="stop-color:#FF6FA5"/>
			<stop  offset="1" style="stop-color:#FFCBD6"/>
		</radialGradient>
		<path class="st12" d="M140.7,108.1c0,0.3,0,0.7,0,1"/>
		<path class="st5" d="M140.7,108.1c0,0.3,0,0.7,0,1c0-0.2-0.1-0.3-0.1-0.5C140.6,108.4,140.6,108.3,140.7,108.1z"/>
		<ellipse class="st5" cx="134.5" cy="103" rx="1" ry="1.1"/>
		<ellipse transform="matrix(0.866 -0.5 0.5 0.866 -33.2799 81.2208)" class="st13" cx="134.9" cy="102.7" rx="0.2" ry="0.2"/>
		<ellipse transform="matrix(0.866 -0.5 0.5 0.866 -33.1052 81.0888)" class="st13" cx="134.8" cy="102.3" rx="0.1" ry="0.1"/>
		<ellipse class="st5" cx="147.4" cy="103" rx="1" ry="1.1"/>
		<ellipse transform="matrix(0.866 -0.5 0.5 0.866 -31.5538 87.6628)" class="st13" cx="147.8" cy="102.7" rx="0.2" ry="0.2"/>
		
			<ellipse transform="matrix(0.867 -0.4983 0.4983 0.867 -31.4484 87.4686)" class="st13" cx="148.1" cy="102.7" rx="0.1" ry="0.1"/>
		<g class="st14">
			<g>
				<ellipse class="st15" cx="146.4" cy="109.1" rx="2.7" ry="2"/>
			</g>
		</g>
		<g class="st14">
			<g>
				<ellipse class="st15" cx="135.2" cy="108.8" rx="2.7" ry="2"/>
			</g>
		</g>
		<path class="st16" d="M145.6,116c0,0-6.8-0.9-7.5,0.2c-0.4,0.8-0.7,1.7-0.7,2.6c0,0,0.2,4.5,1,5.4s5.8-0.5,5.8-0.5
			c-0.3-0.8,0.1-1.7,0.9-2c0.2-0.1,0.5-0.1,0.7-0.1L145.6,116z"/>
		<path class="st5" d="M139.6,124.5c-0.4,0.1-0.9-0.1-1.2-0.3c-0.9-0.9-1-5.2-1-5.4c0.1-0.9,0.3-1.8,0.7-2.6
			c0.7-1.2,7.3-0.3,7.6-0.2l0,0l0,0l0.3,5.6h0c-0.5-0.1-1,0.1-1.4,0.5c-0.3,0.5-0.4,1-0.2,1.5l0,0l0,0
			C142.7,124.1,141.2,124.4,139.6,124.5z M140.8,115.6c-1.3,0-2.4,0.1-2.6,0.6c-0.4,0.8-0.7,1.7-0.7,2.6c0,0,0.2,4.5,1,5.4
			c0.8,0.9,5.3-0.4,5.7-0.5c-0.1-0.5,0-1.1,0.3-1.6c0.4-0.4,0.9-0.6,1.4-0.5l0,0l-0.3-5.5C143.9,115.8,142.4,115.7,140.8,115.6
			L140.8,115.6z"/>
		<path class="st0" d="M149.8,117.3c-0.4,0.4-0.7,0.7-1.1,1c-0.7,0.4-1.6,0.7-2.5,0.7c-0.3,0-0.5,0.4-1.1,0.4s0-0.9,0-0.9
			s-0.4,0.3-0.7,0c-0.2-0.3,0.8-0.6,0.5-0.6s-0.3-0.5-0.2-0.6c0.5-0.2,1-0.4,1.5-0.5c0.7-0.4,1.3-1,1.8-1.6L149.8,117.3z"/>
		<path d="M145.2,119.5c-0.1,0-0.2,0-0.3-0.1c-0.1-0.2,0-0.5,0.1-0.7c-0.2,0.1-0.4,0.1-0.6-0.1c0,0-0.1-0.1,0-0.2
			c0-0.2,0.2-0.3,0.4-0.4l0.1-0.1l0,0c-0.1,0-0.3-0.1-0.3-0.2c0-0.2,0-0.3,0.1-0.5c0.2-0.1,0.3-0.2,0.5-0.2c0.3-0.1,0.7-0.2,1-0.3
			c0.7-0.4,1.3-0.9,1.7-1.6l0.1,0c-0.5,0.7-1.1,1.3-1.8,1.6c-0.3,0.1-0.7,0.2-1,0.3c-0.2,0-0.3,0.1-0.5,0.2
			c-0.1,0.1-0.1,0.2-0.1,0.4c0,0.1,0.1,0.2,0.2,0.2c0,0,0.1,0,0.1,0.1c0,0.1-0.1,0.1-0.2,0.2c-0.1,0.1-0.4,0.2-0.4,0.3
			c0,0,0,0.1,0,0.1c0.2,0.3,0.6,0,0.6,0l0.2-0.1l-0.1,0.2c-0.1,0.1-0.3,0.6-0.2,0.7C144.9,119.4,145,119.4,145.2,119.5
			c0.2-0.1,0.4-0.2,0.6-0.3c0.1-0.1,0.3-0.2,0.4-0.2c0.9,0,1.7-0.3,2.4-0.7c0.4-0.3,0.8-0.7,1.2-1l0.1,0.1c-0.4,0.4-0.7,0.7-1.1,1
			c-0.8,0.4-1.6,0.7-2.5,0.7c-0.1,0-0.3,0.1-0.4,0.1C145.7,119.4,145.4,119.5,145.2,119.5z"/>
		<path class="st0" d="M133.7,117.9c0.4,0.3,0.8,0.6,1.2,0.9c0.6,0.3,1.3,0.5,2,0.7c0.2,0,0.7,0.7,0.9,0.9c0.3,0.2,0.2-0.7,0.1-0.9
			c-0.1-0.2-0.1-0.3,0.1-0.4s0-0.5-0.1-0.5c-0.1,0-0.3-0.1,0-0.3s0.3-0.4,0.1-0.5c-0.5,0-1.1-0.1-1.6-0.3c-0.7-0.6-1.2-1.3-1.7-2.1
			L133.7,117.9z"/>
		<path d="M137.9,120.5C137.9,120.5,137.8,120.5,137.9,120.5c-0.3-0.1-0.4-0.3-0.6-0.5c-0.2-0.2-0.3-0.4-0.4-0.4
			c-0.7-0.2-1.3-0.4-2-0.7c-0.4-0.3-0.8-0.5-1.2-0.9l0.1-0.1c0.4,0.3,0.8,0.6,1.2,0.9c0.6,0.3,1.3,0.5,2,0.7c0.1,0,0.3,0.2,0.5,0.4
			C137.5,120.1,137.7,120.3,137.9,120.5C137.9,120.4,137.9,120.4,137.9,120.5c0.1-0.3,0.1-0.6,0-0.9c-0.1-0.2-0.1-0.3,0.2-0.5
			c0.1,0,0.1-0.1,0.1-0.2c0-0.1-0.1-0.2-0.2-0.2c-0.1,0-0.2-0.1-0.2-0.1c0-0.1,0-0.1,0.2-0.2c0.2-0.1,0.2-0.2,0.2-0.3
			c0,0,0-0.1-0.1-0.1h-0.3c-0.5,0-0.9-0.1-1.3-0.3c-0.7-0.6-1.3-1.3-1.8-2.1l0.1,0c0.5,0.8,1.1,1.5,1.7,2.1c0.4,0.2,0.8,0.2,1.3,0.3
			h0.3c0.1,0,0.2,0.1,0.2,0.2c0,0.2-0.1,0.3-0.3,0.4c-0.1,0.1-0.2,0.1-0.1,0.1c0,0,0.1,0.1,0.1,0.1c0.1,0,0.2,0.2,0.3,0.3
			c0,0.1,0,0.2-0.1,0.3c-0.2,0.1-0.2,0.2-0.1,0.4C138.1,119.7,138.2,120.3,137.9,120.5C138,120.5,137.9,120.5,137.9,120.5z"/>
		<path d="M147.1,108.1c0.2-0.1,0.5-0.3,0.7-0.4s0.5-0.2,0.7-0.3c0.5-0.2,1-0.4,1.5-0.5l-0.8,0.3c-0.2,0.1-0.5,0.2-0.7,0.3
			C148.1,107.6,147.6,107.9,147.1,108.1z"/>
		<path d="M146.8,108.6l1.2-0.1l1.2-0.1h1.2h1.2l-1.2,0.1l-1.2,0.1h-1.2H146.8z"/>
		<path d="M147.1,109.3l1.1,0.2l1.1,0.2l1,0.3l0.5,0.1c0.2,0,0.4,0.1,0.5,0.1c-0.4,0-0.7-0.1-1.1-0.2l-1.1-0.2l-1-0.3L147.1,109.3z"
			/>
		<path d="M133.8,108.1c-0.6,0-1.2-0.1-1.8-0.2c-0.3,0-0.6-0.1-0.9-0.1c-0.3,0-0.6-0.1-0.9-0.2c0.1,0,0.3,0.1,0.5,0.1l0.5,0.1
			l0.9,0.1C132.6,107.9,133.2,108,133.8,108.1z"/>
		<path d="M134,108.8c-0.6,0.1-1.2,0.2-1.8,0.3l-0.9,0.1c-0.3,0-0.6,0.1-0.9,0.1l0.9-0.2l0.9-0.2C132.7,109,133.3,108.9,134,108.8z"
			/>
		<path d="M134.2,109.8c-0.6,0.2-1.2,0.4-1.9,0.6l-0.9,0.3l-0.5,0.1c-0.2,0-0.3,0.1-0.5,0.2c0.3-0.2,0.6-0.3,0.9-0.4l0.9-0.3
			C132.9,110.1,133.5,109.9,134.2,109.8z"/>
		<path class="st5" d="M149.3,98c-0.4-1.2-0.5-2.5-0.4-3.8c0-0.2,0-0.3,0.1-0.5c0.1-0.2,0.1-0.3,0.1-0.5c0-0.2,0.1-0.3,0.1-0.5
			c0-0.2,0.1-0.3,0.2-0.5c0.2-0.6,0.5-1.2,0.9-1.7c0.3-0.5,0.8-1,1.3-1.5l0.2-0.2l0.2-0.1c0.1-0.1,0.3-0.2,0.4-0.3l0.2-0.1l0.2-0.1
			l0.2-0.1c0.1,0,0.2-0.1,0.2-0.1c0.2,0,0.3-0.1,0.5-0.1c0.2,0,0.3,0,0.5,0c0.3,0,0.6,0,1,0.1c0.3,0,0.6,0.1,0.9,0.2
			c0.3,0.1,0.6,0.2,0.9,0.4c-0.3-0.2-0.6-0.3-0.9-0.4c-0.3-0.1-0.6-0.2-0.9-0.2c-0.3,0-0.7-0.1-1-0.1c-0.2,0-0.3,0-0.5,0
			c-0.2,0-0.3,0-0.5,0.1c-0.1,0-0.2,0-0.2,0.1l-0.2,0.1l-0.2,0.1l-0.2,0.1c-0.1,0.1-0.3,0.2-0.4,0.3l-0.2,0.1l-0.2,0.2
			c-0.5,0.4-0.9,0.9-1.2,1.5c-0.3,0.5-0.6,1.1-0.9,1.7c-0.2,0.6-0.4,1.2-0.4,1.8c-0.1,0.6-0.1,1.3,0,1.9
			C149,96.8,149.1,97.4,149.3,98z"/>
	</g>
</g>
<g id="cheese">
	<title>parm3</title>
	<g id="Layer_1_1_">
		
			<image style="overflow:visible;enable-background:new    ;" width="156" height="180" xlink:href="28D078191508277E.png"  transform="matrix(0.9 0 0 0.9 14.77 8.91)">
		</image>
	</g>
</g>
</svg>
