<?xml version="1.0" encoding="utf-8"?>
<!-- Generator: Adobe Illustrator 21.0.2, SVG Export Plug-In . SVG Version: 6.00 Build 0)  -->
<svg version="1.1" xmlns="http://www.w3.org/2000/svg" xmlns:xlink="http://www.w3.org/1999/xlink" x="0px" y="0px"
	 viewBox="0 0 240 240" style="enable-background:new 0 0 240 240;" xml:space="preserve">
<style type="text/css">
	.st0{opacity:0.68;fill:none;stroke:#ECC06E;stroke-miterlimit:10;}
	.st1{fill:#ECC06E;}
	.st2{fill:#F5E2BE;}
	.st3{fill:none;stroke:#E2CCA8;stroke-width:0.5;stroke-miterlimit:10;}
	.st4{fill:#FFFFFF;}
	.st5{opacity:0.41;}
	.st6{filter:url(#Adobe_OpacityMaskFilter);}
	.st7{mask:url(#SVGID_1_);}
	.st8{fill:url(#SVGID_2_);}
	.st9{filter:url(#Adobe_OpacityMaskFilter_1_);}
	.st10{mask:url(#SVGID_3_);}
	.st11{fill:url(#SVGID_4_);}
	.st12{fill:#FF8533;}
	.st13{fill:#231F20;}
	.st14{fill:#FDD4C8;}
	.st15{opacity:0.32;fill:url(#SVGID_5_);}
	.st16{opacity:0.31;fill:url(#SVGID_6_);}
	.st17{opacity:0.31;fill:url(#SVGID_7_);}
	.st18{opacity:0.58;}
	.st19{fill:url(#SVGID_8_);}
	.st20{fill:url(#SVGID_9_);}
	.st21{opacity:0.49;}
	.st22{filter:url(#Adobe_OpacityMaskFilter_2_);}
	.st23{mask:url(#SVGID_10_);}
	.st24{fill:#FCE6E0;}
	.st25{filter:url(#Adobe_OpacityMaskFilter_3_);}
	.st26{mask:url(#SVGID_11_);}
	.st27{fill:#FFCC66;}
	.st28{opacity:0.29;}
	.st29{filter:url(#Adobe_OpacityMaskFilter_4_);}
	.st30{mask:url(#SVGID_12_);}
	.st31{fill:url(#SVGID_13_);}
	.st32{filter:url(#Adobe_OpacityMaskFilter_5_);}
	.st33{mask:url(#SVGID_14_);}
	.st34{fill:url(#SVGID_15_);}
</style>
<g id="cheese">
	<line class="st0" x1="3" y1="65.4" x2="147.8" y2="89"/>
	<g>
		<path class="st1" d="M159.9,221.2c0,0,8-84-12.1-132.2l77.1-38.2c0,0,6.9,6.6,7.3,8.7s0.7,9,1.7,12.5c1,3.5,3.5,81.6-11.1,110.4
			C222.8,182.3,192.9,212.2,159.9,221.2z"/>
		<path class="st2" d="M224.8,50.8c0,0,0,0-3.5-1.7c-3.5-1.7-14.9,2.8-26.4,3.8c-11.5,1-43,0.7-53.1,0.1
			c-10.1-0.6-35.4,3.1-42.3,4.2c-6.9,1.2-25.3-0.5-29.9,0c-4.5,0.5-15.3,5.1-21.9,3c-6.6-2.1-12.8,0.7-16.3,1.4
			C28,62.2,3,65.4,3,65.4S0.3,77.8,1.6,80.3C3,82.7,5.1,85.8,5.1,89c0,3.1,1.7,10.8,4.9,15.6c3.1,4.9,3.5,13.9,3.8,17
			c0.3,3.1,3.5,11.1,6.2,13.2c2.8,2.1,4.2,2.4,2.4,9.7c-1.7,7.3-0.7,12.1-0.7,17.4c0,5.2-3.1,14.9,4.2,16c7.3,1,19.8,7.3,23.6,9
			c3.8,1.7,21.8,8.3,25,8.3c3.1,0,18.4,2.1,24,4.9c5.6,2.8,13.5,5.9,16.3,8.3c2.8,2.4,13.9,6.2,21.9,8.7c8,2.4,17.7,5.9,23.3,4.2
			c0,0,7.6-88.9-12.1-132.2L224.8,50.8z"/>
	</g>
	<line class="st3" x1="147.8" y1="89" x2="3" y2="65.4"/>
</g>
<g id="mouse">
	<g>
		<g>
			<path class="st4" d="M57.5,19.4c0,0-3.1,0.3-4.4,3.5s-2,5.6,0.7,8c2.6,2.4,5.8,2.7,6.9,2.9c0,0-3.8,8.1-3.8,14.5
				s0.4,12.6,6.1,14.1c5.7,1.4,8.6,1.8,10.7,1.8c2,0,8.8-0.2,11.8-3.6s2.5-9.4,2-13.3c-0.5-3.9-1.8-10-3-11.8
				c-1.2-1.9-1.2-1.9-1.2-1.9s3.8,0,5.3-2s2.5-3.8,2.5-5.8c-0.1-2-2.2-6.8-5-7.2c-2.8-0.4-4.6,0.7-6,2.3c-1.4,1.6-2.9,4.7-2.9,4.7
				s-3.1-0.8-4.8-0.7c-1.7,0.2-4.3,0.7-5.3,1.4c0,0-2.9-4.5-4.9-5.4C59.9,19.9,58.8,19.1,57.5,19.4z"/>
			<path d="M73.5,64.2c-1.7,0-4.5-0.2-10.7-1.8c-2.6-0.7-4.3-2.4-5.2-5.2c-0.8-2.6-0.9-5.8-0.9-8.9c0.1-6.1,3.5-13.7,3.8-14.4
				c-0.1,0-0.1,0-0.2,0c-1.3-0.2-4.2-0.6-6.7-2.8c-2.7-2.4-1.9-5-0.7-8.1c1.3-3.1,4.3-3.5,4.4-3.5c1.1-0.3,2,0.2,3.5,0.8
				c0.3,0.2,0.7,0.3,1,0.5c1.9,0.9,4.6,4.9,4.9,5.4c0.9-0.7,3.4-1.2,5.3-1.4c1.6-0.2,4.5,0.6,4.8,0.6c0.2-0.3,1.6-3.1,2.9-4.6
				c1.6-1.9,3.5-2.7,6-2.3c2.9,0.4,4.9,5.3,5,7.2c0.1,1.9-0.9,3.6-2.5,5.8c-0.8,1.1-2.2,1.6-3.2,1.8c-1,0.2-1.8,0.2-2,0.3l1.2,1.8
				c1.2,1.9,2.6,8.1,3,11.9c0.4,3.2,1.2,9.7-2,13.4C84.2,61.9,81.1,64.2,73.5,64.2z M58.2,19.4c-0.2,0-0.4,0-0.6,0.1l0,0
				c0,0-3.1,0.4-4.4,3.5c-1.3,3-2,5.6,0.6,8c2.4,2.2,5.4,2.6,6.6,2.8c0.1,0,0.2,0,0.2,0l0.1,0l0,0c0,0.1-3.8,8.2-3.8,14.4
				c0,3.1,0,6.3,0.9,8.9c0.9,2.8,2.6,4.5,5.2,5.2c6.2,1.6,9,1.8,10.7,1.8c2,0,3.9-0.2,5.5-0.5c2.9-0.6,5-1.6,6.3-3.1
				c3.2-3.6,2.3-10.1,2-13.3c-0.5-3.7-1.8-9.9-3-11.8L83,33.5h0.1c0,0,1,0,2.1-0.3c1-0.2,2.4-0.7,3.2-1.8c1.6-2.2,2.5-3.9,2.4-5.8
				c-0.1-1.9-2.1-6.7-5-7.2c-2.4-0.4-4.3,0.4-5.9,2.3c-1.4,1.6-2.9,4.6-2.9,4.7l0,0l0,0c0,0-3.1-0.8-4.8-0.7
				c-1.9,0.2-4.4,0.7-5.3,1.4l0,0l0,0c0,0-2.9-4.5-4.9-5.4c-0.4-0.2-0.7-0.3-1-0.5C59.8,19.8,59,19.4,58.2,19.4z"/>
		</g>
		<g class="st5">
			<defs>
				<filter id="Adobe_OpacityMaskFilter" filterUnits="userSpaceOnUse" x="79.4" y="19.5" width="9.4" height="12.2">
					<feFlood  style="flood-color:white;flood-opacity:1" result="back"/>
					<feBlend  in="SourceGraphic" in2="back" mode="normal"/>
				</filter>
			</defs>
			<mask maskUnits="userSpaceOnUse" x="79.4" y="19.5" width="9.4" height="12.2" id="SVGID_1_">
				<g class="st6">
					
						<image style="overflow:visible;" width="15" height="18" xlink:href="783DA2F3DD3681B9.jpg"  transform="matrix(1 0 0 1 76.6316 16.5428)">
					</image>
				</g>
			</mask>
			<g class="st7">
				<radialGradient id="SVGID_2_" cx="84.146" cy="25.6187" r="5.4612" gradientUnits="userSpaceOnUse">
					<stop  offset="0.3661" style="stop-color:#FF8EA5"/>
					<stop  offset="1" style="stop-color:#FFCBD6"/>
				</radialGradient>
				<path class="st8" d="M88.9,25.8c0,3.3-2.1,5.9-4.7,5.9c-1.6,0-3.6-0.8-4.2-2.4c-0.3-0.7-0.5-2.2-0.5-3.5c0-3.3,2.4-6.3,5-6.3
					c1,0,2.1,0.2,2.8,0.6C88.7,21,88.9,23.8,88.9,25.8z"/>
			</g>
		</g>
		<g class="st5">
			<defs>
				<filter id="Adobe_OpacityMaskFilter_1_" filterUnits="userSpaceOnUse" x="53.4" y="20.7" width="11.2" height="11.8">
					<feFlood  style="flood-color:white;flood-opacity:1" result="back"/>
					<feBlend  in="SourceGraphic" in2="back" mode="normal"/>
				</filter>
			</defs>
			<mask maskUnits="userSpaceOnUse" x="53.4" y="20.7" width="11.2" height="11.8" id="SVGID_3_">
				<g class="st9">
					
						<image style="overflow:visible;" width="16" height="16" xlink:href="783DA2F3DD3681BB.jpg"  transform="matrix(1 0 0 1 50.6316 18.5428)">
					</image>
				</g>
			</mask>
			<g class="st10">
				
					<radialGradient id="SVGID_4_" cx="-309.5443" cy="-413.8823" r="5.6086" gradientTransform="matrix(0.6015 -0.7989 0.7989 0.6015 575.921 28.1625)" gradientUnits="userSpaceOnUse">
					<stop  offset="0.3661" style="stop-color:#FF8EA5"/>
					<stop  offset="1" style="stop-color:#FFCBD6"/>
				</radialGradient>
				<path class="st11" d="M62.2,22.6c1.7,1.3,2.8,4.5,2.3,6.7c-0.1,0.5-0.4,0.9-0.7,1.2c-1,1.3-2.8,2.4-4.5,1.9
					c-0.7-0.2-2.1-1-3-1.7c-2.6-2-3.7-5.7-2.1-7.8c0.6-0.8,1.4-1.6,2.2-1.9C58.6,20.1,60.6,21.3,62.2,22.6z"/>
			</g>
		</g>
		<g>
			<path class="st12" d="M76.3,46.6c0,0-3.6-2.1-7.5-1.3c0,0-1.5,0.8-1.4,2.8c0.1,2,0,5.2,1.8,6.4L76.3,46.6z"/>
			<path class="st13" d="M69.2,54.6L69.2,54.6c-1.7-1.2-1.8-4-1.9-6c0-0.1,0-0.3,0-0.4c0-1.1,0.4-1.8,0.7-2.2
				c0.4-0.5,0.7-0.7,0.7-0.7l0,0c3.9-0.8,7.4,1.3,7.5,1.3l0,0l0,0L69.2,54.6z M68.8,45.3c-0.1,0.1-1.5,0.9-1.4,2.8
				c0,0.1,0,0.3,0,0.4c0.1,2,0.1,4.8,1.8,5.9l7-7.9C75.8,46.3,72.4,44.5,68.8,45.3z"/>
		</g>
		<g>
			<path class="st14" d="M78.8,63.7c0,0,1.6,1.3,2.9,1.3c1.3,0,2.3-1.1,2-1.6c-0.3-0.5-0.9-1-0.9-1S80.2,63.4,78.8,63.7z"/>
			<path d="M81.8,65C81.7,65,81.7,65,81.8,65c-1.4-0.1-3-1.3-3-1.3l0,0l0,0c1.4-0.2,3.9-1.2,3.9-1.2l0,0l0,0c0,0,0.7,0.4,1,1
				c0.1,0.2,0.1,0.4-0.1,0.7C83.3,64.5,82.6,65,81.8,65z M78.8,63.7c0.2,0.2,1.6,1.2,2.9,1.3c0,0,0.1,0,0.1,0c0.8,0,1.5-0.4,1.8-0.9
				c0.2-0.2,0.2-0.5,0.1-0.6c-0.3-0.5-0.9-0.9-0.9-0.9C82.6,62.5,80.2,63.4,78.8,63.7z"/>
		</g>
		<g>
			<path class="st14" d="M62.8,62.4c0,0-0.7,0.2-0.9,1.3l0.4,0.3v0.6h0.4l0.4,0.4l0.5-0.1c0,0,2.2,0,3.2-1.5
				C66.9,63.3,64.4,62.9,62.8,62.4z"/>
			<path d="M63.2,65L63.2,65l-0.4-0.4h-0.4V64l-0.4-0.3l0,0c0.1-1.1,0.9-1.3,0.9-1.3l0,0l0,0c1.5,0.5,4.1,0.9,4.1,1l0,0l0,0
				c-1,1.5-3.2,1.5-3.2,1.5L63.2,65z M62.4,64.6h0.4l0,0l0.4,0.4l0.5-0.1c0,0,2.2,0,3.2-1.5c-0.3-0.1-2.7-0.5-4.1-0.9
				c-0.1,0-0.7,0.3-0.8,1.3l0.4,0.3V64.6z"/>
		</g>
		<g>
			<path class="st14" d="M86.7,58.5c0,0,2.1,1.3,3.6,1.5c1.5,0.2,4.8,0.6,5.5,2.4c0.8,1.8,1.3,4.7-1.2,6.1c-2.5,1.4-6.8,1.2-7.9,1.5
				c-1.2,0.2-5.6,0.6-6.8,1.6c-1.2,1.1,0.4,0.6,0.4,0.6s3.2-1.2,5.7-1c2.5,0.2,8.8,0.5,10.5-1.3c1.6-1.8,3-3.5,2.3-7.6
				s-6.4-4.6-6.4-4.6s-4.2-1-4.9-2.1L86.7,58.5z"/>
			<path d="M79.6,72.4c-0.1,0-0.2,0-0.2-0.1c-0.1-0.1,0.1-0.3,0.4-0.6c0.9-0.8,3.7-1.2,5.5-1.4c0.5-0.1,1-0.1,1.3-0.2
				c0.3-0.1,0.9-0.1,1.5-0.1c1.8-0.1,4.6-0.3,6.4-1.3c2.9-1.6,1.6-5.1,1.2-6.1c-0.8-1.8-4-2.2-5.5-2.4l0,0c-1.5-0.2-3.6-1.5-3.6-1.6
				l0,0l0,0l0.8-2.8l0,0c0.3,0.5,1.2,1,2.7,1.5c1.1,0.4,2.2,0.7,2.2,0.7c0,0,1.4,0.1,2.9,0.7c1.4,0.6,3.1,1.7,3.4,3.9
				c0.7,4-0.6,5.8-2.3,7.6c-1.7,1.8-8.5,1.4-10.5,1.3c-1.3-0.1-2.8,0.2-3.8,0.4c-1.1,0.3-1.9,0.6-1.9,0.6
				C80.2,72.3,79.9,72.4,79.6,72.4z M86.7,58.5c0.2,0.1,2.1,1.3,3.6,1.5l0,0c1.5,0.2,4.8,0.6,5.5,2.4c0.5,1,1.7,4.5-1.2,6.2
				c-1.9,1-4.6,1.2-6.4,1.3c-0.7,0-1.2,0.1-1.5,0.1c-0.3,0.1-0.7,0.1-1.3,0.2c-1.8,0.2-4.6,0.6-5.5,1.4c-0.4,0.4-0.5,0.5-0.4,0.6
				c0.1,0.1,0.6,0,0.8-0.1c0,0,0.8-0.3,1.9-0.6c1-0.2,2.5-0.5,3.8-0.4c2,0.2,8.8,0.6,10.5-1.3c1.7-1.8,2.9-3.6,2.3-7.6
				c-0.4-2.1-2.1-3.2-3.4-3.8c-1.5-0.6-2.9-0.7-2.9-0.7c-0.2,0-4.2-1-4.9-2.1L86.7,58.5z"/>
		</g>
		<radialGradient id="SVGID_5_" cx="89.1555" cy="64.0352" r="9.0664" gradientUnits="userSpaceOnUse">
			<stop  offset="0.3661" style="stop-color:#FBCAC7"/>
			<stop  offset="0.6695" style="stop-color:#FBD3C7"/>
			<stop  offset="0.8659" style="stop-color:#BDBDBD"/>
			<stop  offset="1" style="stop-color:#858585"/>
		</radialGradient>
		<path class="st15" d="M86.7,58.5c0,0,2.1,1.3,3.6,1.5c1.5,0.2,4.8,0.6,5.5,2.4c0.8,1.8,1.3,4.7-1.2,6.1c-2.5,1.4-6.8,1.2-7.9,1.5
			c-1.2,0.2-5.6,0.6-6.8,1.6c-1.2,1.1,0.4,0.6,0.4,0.6s3.2-1.2,5.7-1c2.5,0.2,8.8,0.5,10.5-1.3c1.6-1.8,3-3.5,2.3-7.6
			s-6.4-4.6-6.4-4.6s-4.2-1-4.9-2.1L86.7,58.5z"/>
		<radialGradient id="SVGID_6_" cx="64.4522" cy="63.6926" r="1.9868" gradientUnits="userSpaceOnUse">
			<stop  offset="0.3304" style="stop-color:#FBB0C7"/>
			<stop  offset="0.9985" style="stop-color:#858585"/>
		</radialGradient>
		<path class="st16" d="M62.8,62.4c0,0-0.7,0.2-0.9,1.3l0.4,0.3v0.6h0.4l0.4,0.4l0.5-0.1c0,0,2.2,0,3.2-1.5
			C66.9,63.3,64.4,62.9,62.8,62.4z"/>
		<radialGradient id="SVGID_7_" cx="81.3217" cy="63.7269" r="1.9188" gradientUnits="userSpaceOnUse">
			<stop  offset="0.3304" style="stop-color:#FBB0C7"/>
			<stop  offset="0.9985" style="stop-color:#858585"/>
		</radialGradient>
		<path class="st17" d="M78.9,63.7c0,0,1.4,1.2,2.8,1.2c1.3,0,2.3-1.1,2-1.6c-0.3-0.5-0.8-0.9-0.8-0.9S80.6,63.6,78.9,63.7z"/>
		<path class="st13" d="M64.5,29.4c0-0.7,0-1.4,0-2.1c-0.1-0.7-0.2-1.4-0.4-2c-0.2-0.7-0.5-1.3-0.9-1.8c-0.2-0.3-0.4-0.5-0.7-0.8
			c-0.3-0.2-0.5-0.4-0.8-0.6c-0.6-0.4-1.2-0.7-1.8-1c-0.6-0.3-1.3-0.5-2-0.5c-0.7,0-1.4,0.2-1.9,0.6c-0.3,0.2-0.6,0.4-0.8,0.6
			c-0.3,0.2-0.5,0.5-0.7,0.8c0.2-0.3,0.4-0.5,0.7-0.8c0.2-0.2,0.5-0.5,0.8-0.6c0.6-0.4,1.3-0.6,2-0.6c0.7,0,1.4,0.2,2,0.4
			c0.6,0.3,1.2,0.6,1.8,1c0.3,0.2,0.6,0.4,0.8,0.6c0.3,0.2,0.5,0.5,0.7,0.8c0.4,0.6,0.7,1.2,0.9,1.9C64.5,26.7,64.6,28.1,64.5,29.4z
			"/>
		<path class="st13" d="M66.1,25c0.2,0.3,0.5,0.6,0.7,1c0.1,0.2,0.2,0.3,0.3,0.5c0.1,0.2,0.2,0.3,0.2,0.5c0-0.1-0.1-0.2-0.1-0.3
			c0-0.1-0.1-0.2-0.2-0.3L66.7,26C66.5,25.7,66.3,25.4,66.1,25z"/>
		<path class="st13" d="M77.5,24.4c-0.1,0.3-0.3,0.6-0.4,0.9l-0.2,0.5c-0.1,0.2-0.2,0.3-0.2,0.5c0-0.2,0.1-0.3,0.2-0.5
			c0.1-0.2,0.1-0.3,0.2-0.5C77.1,25,77.3,24.7,77.5,24.4z"/>
		<path class="st13" d="M71.4,38.9c-0.3,0-0.6-0.2-0.8-0.5c-0.1-0.1-0.1-0.2-0.1-0.3c0.1-0.1,0.3-0.2,0.3-0.2c0,0,0,0,0,0l0,0
			c0,0,0,0,0.1,0c0.2,0,0.6,0,1.1,0c0.2,0,0.3,0,0.4,0.1c0.1,0.1,0,0.3,0,0.3l0,0c0,0-0.4,0.3-0.7,0.5
			C71.6,38.9,71.5,38.9,71.4,38.9z M70.9,37.9c-0.1,0-0.2,0.1-0.3,0.2c0,0.1,0,0.2,0.1,0.3c0.3,0.4,0.7,0.6,1,0.4
			c0.3-0.2,0.6-0.5,0.7-0.5c0,0,0.1-0.2,0-0.2c0-0.1-0.2-0.1-0.3-0.1C71.6,38,71.2,37.9,70.9,37.9C70.9,37.9,70.9,37.9,70.9,37.9
			C70.9,37.9,70.9,37.9,70.9,37.9z"/>
		<g class="st18">
			<radialGradient id="SVGID_8_" cx="71.5055" cy="38.4095" r="0.7551" gradientUnits="userSpaceOnUse">
				<stop  offset="0.3661" style="stop-color:#FF8EA5"/>
				<stop  offset="1" style="stop-color:#FFCBD6"/>
			</radialGradient>
			<path class="st19" d="M70.9,37.9c-0.1,0-0.5,0.2-0.2,0.5c0.3,0.4,0.7,0.6,1.1,0.4c0.3-0.2,0.7-0.5,0.7-0.5s0.2-0.4-0.3-0.4
				C71.5,37.9,71,37.9,70.9,37.9z"/>
			<path class="st13" d="M71.4,38.9c-0.3,0-0.6-0.2-0.8-0.5c-0.1-0.1-0.1-0.2-0.1-0.3c0.1-0.1,0.3-0.2,0.3-0.2c0,0,0,0,0,0l0,0
				c0,0,0,0,0.1,0c0.2,0,0.6,0,1.1,0c0.2,0,0.3,0,0.4,0.1c0.1,0.1,0,0.3,0,0.3l0,0c0,0-0.4,0.3-0.7,0.5
				C71.6,38.9,71.5,38.9,71.4,38.9z M70.9,37.9c-0.1,0-0.2,0.1-0.3,0.2c0,0.1,0,0.2,0.1,0.3c0.3,0.4,0.7,0.6,1,0.4
				c0.3-0.2,0.6-0.5,0.7-0.5c0,0,0.1-0.2,0-0.2c0-0.1-0.2-0.1-0.3-0.1C71.6,38,71.2,37.9,70.9,37.9C70.9,37.9,70.9,37.9,70.9,37.9
				C70.9,37.9,70.9,37.9,70.9,37.9z"/>
		</g>
		<g>
			<radialGradient id="SVGID_9_" cx="71.4301" cy="39.4211" r="0.3604" gradientUnits="userSpaceOnUse">
				<stop  offset="0.3661" style="stop-color:#FF6FA5"/>
				<stop  offset="1" style="stop-color:#FFCBD6"/>
			</radialGradient>
			<path class="st20" d="M71.4,38.9c0,0-0.1,0.6,0,1"/>
			<path class="st13" d="M71.4,38.9c0,0.3,0,0.7,0,1c0-0.2-0.1-0.3-0.1-0.5C71.4,39.2,71.4,39.1,71.4,38.9z"/>
		</g>
		<g>
			<ellipse class="st13" cx="65.5" cy="33.9" rx="1" ry="1.1"/>
			<ellipse transform="matrix(0.866 -0.5 0.5 0.866 -8.0111 37.438)" class="st4" cx="65.9" cy="33.7" rx="0.2" ry="0.2"/>
			<ellipse transform="matrix(0.866 -0.5 0.5 0.866 -7.8435 37.3127)" class="st4" cx="65.7" cy="33.3" rx="0.1" ry="0.1"/>
		</g>
		<g>
			<ellipse class="st13" cx="78" cy="33.9" rx="1" ry="1.1"/>
			<ellipse transform="matrix(0.866 -0.5 0.5 0.866 -6.3313 43.7072)" class="st4" cx="78.4" cy="33.7" rx="0.2" ry="0.2"/>
			<ellipse transform="matrix(0.866 -0.5 0.5 0.866 -6.1636 43.5819)" class="st4" cx="78.2" cy="33.3" rx="0.1" ry="0.1"/>
		</g>
		<g class="st21">
			<defs>
				<filter id="Adobe_OpacityMaskFilter_2_" filterUnits="userSpaceOnUse" x="74.5" y="37.9" width="5.2" height="3.9">
					<feFlood  style="flood-color:white;flood-opacity:1" result="back"/>
					<feBlend  in="SourceGraphic" in2="back" mode="normal"/>
				</filter>
			</defs>
			<mask maskUnits="userSpaceOnUse" x="74.5" y="37.9" width="5.2" height="3.9" id="SVGID_10_">
				<g class="st22">
					
						<image style="overflow:visible;" width="11" height="9" xlink:href="783DA2F3DD3681BE.jpg"  transform="matrix(1 0 0 1 71.6316 35.5428)">
					</image>
				</g>
			</mask>
			<g class="st23">
				<ellipse class="st24" cx="77.1" cy="39.9" rx="2.6" ry="2"/>
			</g>
		</g>
		<g class="st21">
			<defs>
				<filter id="Adobe_OpacityMaskFilter_3_" filterUnits="userSpaceOnUse" x="63.5" y="37.7" width="5.2" height="3.9">
					<feFlood  style="flood-color:white;flood-opacity:1" result="back"/>
					<feBlend  in="SourceGraphic" in2="back" mode="normal"/>
				</filter>
			</defs>
			<mask maskUnits="userSpaceOnUse" x="63.5" y="37.7" width="5.2" height="3.9" id="SVGID_11_">
				<g class="st25">
					
						<image style="overflow:visible;" width="11" height="9" xlink:href="783DA2F3DD3681BF.jpg"  transform="matrix(1 0 0 1 60.6316 35.5428)">
					</image>
				</g>
			</mask>
			<g class="st26">
				<ellipse class="st24" cx="66.1" cy="39.6" rx="2.6" ry="2"/>
			</g>
		</g>
		<g>
			<path class="st27" d="M76.3,46.6c0,0-6.7-0.9-7.3,0.2s-0.7,2.5-0.7,2.5s0.2,4.3,1,5.3c0.8,0.9,5.7-0.5,5.7-0.5s-0.5-2.1,1.6-2
				L76.3,46.6z"/>
			<path class="st13" d="M70.4,54.9c-0.6,0-1-0.1-1.2-0.3c-0.8-0.9-1-5.1-1-5.3c0,0,0.1-1.4,0.7-2.5c0.7-1.1,7.1-0.3,7.4-0.2l0,0
				l0,0l0.3,5.4l0,0c-0.6,0-1.1,0.2-1.4,0.5c-0.5,0.6-0.2,1.5-0.2,1.5l0,0l0,0C74.8,54.1,72.1,54.9,70.4,54.9z M71.5,46.2
				c-1.3,0-2.3,0.1-2.6,0.5c-0.6,1.1-0.7,2.5-0.7,2.5c0,0,0.2,4.3,1,5.2c0.8,0.8,5.1-0.4,5.6-0.5c0-0.2-0.2-1,0.3-1.5
				c0.3-0.4,0.7-0.5,1.4-0.5c0,0,0,0,0,0l-0.3-5.3C75.9,46.6,73.5,46.2,71.5,46.2z"/>
		</g>
		<g>
			<path class="st4" d="M80.4,47.9c0,0-0.5,0.5-1.1,1c-0.6,0.5-2.1,0.7-2.4,0.7c-0.3,0-0.5,0.4-1,0.4c-0.6,0,0-0.9,0-0.9
				s-0.4,0.3-0.7,0c-0.2-0.3,0.8-0.6,0.5-0.6s-0.3-0.5-0.2-0.6s0.6-0.2,1.4-0.5s1.7-1.6,1.7-1.6L80.4,47.9z"/>
			<path d="M75.8,50c-0.1,0-0.2,0-0.3-0.1c-0.1-0.2,0-0.5,0.1-0.7c-0.2,0.1-0.4,0.1-0.6-0.1c0,0-0.1-0.1,0-0.2
				c0-0.1,0.2-0.3,0.4-0.4c0,0,0.1-0.1,0.1-0.1c0,0,0,0,0,0c-0.1,0-0.2-0.1-0.3-0.2c0-0.2,0-0.3,0.1-0.4c0.1-0.1,0.2-0.1,0.5-0.2
				c0.2-0.1,0.5-0.1,1-0.3c0.8-0.3,1.7-1.6,1.7-1.6l0.1,0c0,0.1-0.9,1.3-1.7,1.6c-0.4,0.2-0.7,0.2-1,0.3c-0.2,0.1-0.4,0.1-0.5,0.2
				c-0.1,0.1-0.1,0.2-0.1,0.4c0,0.1,0.1,0.2,0.2,0.2c0,0,0.1,0,0.1,0.1c0,0.1-0.1,0.1-0.2,0.2c-0.1,0.1-0.3,0.2-0.4,0.3
				c0,0,0,0.1,0,0.1c0.2,0.3,0.6,0,0.6,0l0.2-0.1l-0.1,0.2c-0.1,0.1-0.3,0.6-0.2,0.7C75.7,49.9,75.7,49.9,75.8,50
				c0.3-0.1,0.5-0.2,0.6-0.3c0.1-0.1,0.3-0.2,0.4-0.2c0.3,0,1.8-0.2,2.4-0.7c0.6-0.4,1.1-1,1.1-1l0.1,0.1c0,0-0.5,0.5-1.1,1
				c-0.6,0.5-2.1,0.7-2.4,0.7c-0.1,0-0.2,0.1-0.3,0.1C76.4,49.9,76.2,50,75.8,50z"/>
			<g class="st28">
				<defs>
					<filter id="Adobe_OpacityMaskFilter_4_" filterUnits="userSpaceOnUse" x="75.1" y="45.3" width="5.9" height="4.7">
						<feFlood  style="flood-color:white;flood-opacity:1" result="back"/>
						<feBlend  in="SourceGraphic" in2="back" mode="normal"/>
					</filter>
				</defs>
				<mask maskUnits="userSpaceOnUse" x="75.1" y="45.3" width="5.9" height="4.7" id="SVGID_12_">
					<g class="st29">
						
							<image style="overflow:visible;" width="11" height="10" xlink:href="783DA2F3DD3681BA.jpg"  transform="matrix(1 0 0 1 72.6316 42.5428)">
						</image>
					</g>
				</mask>
				<g class="st30">
					<radialGradient id="SVGID_13_" cx="78.0688" cy="47.6084" r="2.6699" gradientUnits="userSpaceOnUse">
						<stop  offset="0.409" style="stop-color:#FFFFFF"/>
						<stop  offset="0.9233" style="stop-color:#FFCFCC"/>
						<stop  offset="1" style="stop-color:#FFCBD6"/>
					</radialGradient>
					<path class="st31" d="M81,47.6c0,0-1.2,0.8-1.8,1.3c-0.6,0.5-2.1,0.7-2.4,0.7c-0.3,0-0.5,0.4-1,0.4c-0.6,0,0-0.9,0-0.9
						s-0.4,0.3-0.7,0c-0.2-0.3,0.8-0.6,0.5-0.6s-0.3-0.5-0.2-0.6s0.6-0.2,1.4-0.5s2.1-2.1,2.1-2.1L81,47.6z"/>
				</g>
			</g>
		</g>
		<g>
			<path class="st4" d="M64.7,48.5c0,0,0.7,0.6,1.2,0.8c0.5,0.3,1.7,0.6,1.9,0.7s0.6,0.7,0.9,0.9c0.3,0.2,0.2-0.7,0.1-0.9
				c-0.1-0.2-0.1-0.3,0.1-0.4c0.3-0.1,0-0.5-0.1-0.5s-0.3-0.1,0-0.3c0.3-0.1,0.3-0.4,0.1-0.5c-0.2,0-1,0-1.5-0.3
				c-0.5-0.3-1.7-2-1.7-2L64.7,48.5z"/>
			<path d="M68.8,51C68.7,51,68.7,50.9,68.8,51c-0.2-0.1-0.4-0.3-0.6-0.5c-0.2-0.2-0.3-0.4-0.4-0.4c-0.2,0-1.5-0.4-1.9-0.7
				c-0.5-0.3-1.2-0.8-1.2-0.8l0.1-0.1c0,0,0.7,0.6,1.1,0.8c0.5,0.3,1.7,0.6,1.9,0.7c0.1,0,0.3,0.2,0.5,0.4
				C68.4,50.6,68.6,50.8,68.8,51C68.8,50.9,68.8,50.9,68.8,51c0.1-0.2,0.1-0.7,0-0.9c-0.1-0.2-0.1-0.3,0.1-0.5
				c0.1,0,0.1-0.1,0.1-0.2c0-0.1-0.2-0.2-0.2-0.2c-0.1,0-0.2,0-0.2-0.1c0-0.1,0-0.1,0.2-0.2c0.2-0.1,0.2-0.2,0.2-0.3
				c0,0,0-0.1-0.1-0.1c0,0-0.1,0-0.3,0c-0.3,0-0.9-0.1-1.3-0.3c-0.5-0.3-1.7-2-1.7-2l0.1,0c0,0,1.2,1.8,1.7,2
				c0.4,0.2,0.9,0.2,1.3,0.2c0.1,0,0.2,0,0.3,0c0.1,0,0.1,0.1,0.2,0.2c0,0.1-0.1,0.3-0.3,0.4c-0.1,0-0.1,0.1-0.1,0.1
				c0,0,0.1,0.1,0.1,0.1c0.1,0,0.2,0.2,0.3,0.3c0,0.1,0,0.2-0.1,0.3c-0.2,0.1-0.2,0.2-0.1,0.3C68.9,50.2,69,50.8,68.8,51
				C68.8,50.9,68.8,51,68.8,51z"/>
			<g class="st28">
				<defs>
					<filter id="Adobe_OpacityMaskFilter_5_" filterUnits="userSpaceOnUse" x="64.6" y="45.5" width="4.5" height="5.4">
						<feFlood  style="flood-color:white;flood-opacity:1" result="back"/>
						<feBlend  in="SourceGraphic" in2="back" mode="normal"/>
					</filter>
				</defs>
				<mask maskUnits="userSpaceOnUse" x="64.6" y="45.5" width="4.5" height="5.4" id="SVGID_14_">
					<g class="st32">
						
							<image style="overflow:visible;" width="10" height="11" xlink:href="783DA2F3DD3681B5.jpg"  transform="matrix(1 0 0 1 61.6316 42.5428)">
						</image>
					</g>
				</mask>
				<g class="st33">
					<radialGradient id="SVGID_15_" cx="66.814" cy="48.2103" r="2.484" gradientUnits="userSpaceOnUse">
						<stop  offset="0.409" style="stop-color:#FFFFFF"/>
						<stop  offset="0.9233" style="stop-color:#FFCFCC"/>
						<stop  offset="1" style="stop-color:#FFCBD6"/>
					</radialGradient>
					<path class="st34" d="M64.6,48.3c0,0,0.8,0.8,1.3,1c0.5,0.3,1.7,0.6,1.9,0.7s0.6,0.7,0.9,0.9c0.3,0.2,0.2-0.7,0.1-0.9
						c-0.1-0.2-0.1-0.3,0.1-0.4c0.3-0.1,0-0.5-0.1-0.5s-0.3-0.1,0-0.3c0.3-0.1,0.3-0.4,0.1-0.5c-0.2,0-1,0-1.5-0.3
						c-0.5-0.3-2.1-2.6-2.1-2.6L64.6,48.3z"/>
				</g>
			</g>
		</g>
		<path d="M77.7,38.9c0.2-0.1,0.5-0.3,0.7-0.4c0.2-0.1,0.5-0.2,0.7-0.3c0.5-0.2,1-0.4,1.5-0.5c-0.2,0.1-0.5,0.2-0.7,0.3
			c-0.2,0.1-0.5,0.2-0.7,0.3C78.6,38.5,78.2,38.7,77.7,38.9z"/>
		<path d="M77.4,39.4c0.4,0,0.8-0.1,1.2-0.1l1.2,0l1.2,0c0.4,0,0.8,0,1.2,0c-0.4,0-0.8,0.1-1.2,0.1l-1.2,0l-1.2,0
			C78.2,39.4,77.8,39.4,77.4,39.4z"/>
		<path d="M77.7,40.1c0.3,0.1,0.7,0.2,1,0.2l1,0.2l1,0.2c0.2,0,0.3,0.1,0.5,0.1c0.2,0,0.3,0.1,0.5,0.1c-0.4,0-0.7-0.1-1-0.1
			c-0.3-0.1-0.7-0.2-1-0.2c-0.3-0.1-0.7-0.2-1-0.3C78.4,40.3,78,40.2,77.7,40.1z"/>
		<path d="M64.8,38.9c-0.6,0-1.2-0.1-1.8-0.2c-0.3,0-0.6-0.1-0.9-0.1c-0.3-0.1-0.6-0.1-0.9-0.2c0.1,0,0.3,0.1,0.4,0.1
			c0.1,0,0.3,0,0.4,0.1c0.3,0,0.6,0.1,0.9,0.1C63.6,38.8,64.2,38.8,64.8,38.9z"/>
		<path d="M64.9,39.6c-0.6,0.1-1.2,0.2-1.8,0.3c-0.3,0-0.6,0.1-0.9,0.1c-0.3,0-0.6,0.1-0.9,0.1l0.9-0.2l0.9-0.2
			C63.7,39.8,64.3,39.7,64.9,39.6z"/>
		<path d="M65.2,40.5c-0.6,0.2-1.2,0.4-1.8,0.6l-0.9,0.3c-0.2,0-0.3,0.1-0.5,0.1c-0.2,0.1-0.3,0.1-0.4,0.2c0.3-0.2,0.6-0.3,0.9-0.4
			c0.3-0.1,0.6-0.2,0.9-0.3C63.9,40.9,64.5,40.7,65.2,40.5z"/>
		<path class="st13" d="M79.9,29.1c-0.3-1.2-0.5-2.5-0.4-3.7c0-0.2,0-0.3,0.1-0.5c0-0.2,0.1-0.3,0.1-0.5c0-0.2,0.1-0.3,0.1-0.5
			c0-0.1,0.1-0.3,0.2-0.4c0.2-0.6,0.5-1.2,0.8-1.7c0.3-0.5,0.7-1,1.2-1.4l0.2-0.2c0.1,0,0.1-0.1,0.2-0.1c0.1-0.1,0.3-0.2,0.4-0.3
			c0.1,0,0.1-0.1,0.2-0.1l0.2-0.1c0.1,0,0.1,0,0.2-0.1c0.1,0,0.1-0.1,0.2-0.1c0.2,0,0.3-0.1,0.5-0.1c0.2,0,0.3,0,0.5,0
			c0.3,0,0.6,0,0.9,0.1c0.3,0,0.6,0.1,0.9,0.2c0.3,0.1,0.6,0.2,0.9,0.4c-0.3-0.2-0.6-0.3-0.9-0.3c-0.3-0.1-0.6-0.1-0.9-0.2
			c-0.3,0-0.6-0.1-0.9-0.1c-0.2,0-0.3,0-0.5,0c-0.2,0-0.3,0-0.5,0.1c-0.1,0-0.1,0-0.2,0.1c-0.1,0-0.1,0-0.2,0.1l-0.2,0.1
			c-0.1,0-0.1,0.1-0.2,0.1c-0.1,0.1-0.3,0.2-0.4,0.3c-0.1,0-0.1,0.1-0.2,0.1L82,20.5c-0.5,0.4-0.9,0.9-1.2,1.4
			c-0.3,0.5-0.6,1.1-0.8,1.7c-0.2,0.6-0.4,1.2-0.4,1.8c-0.1,0.6,0,1.2,0,1.9C79.6,27.9,79.7,28.5,79.9,29.1z"/>
	</g>
</g>
</svg>
