<?xml version="1.0" encoding="utf-8"?>
<!-- Generator: Adobe Illustrator 21.0.2, SVG Export Plug-In . SVG Version: 6.00 Build 0)  -->
<svg version="1.1" xmlns="http://www.w3.org/2000/svg" xmlns:xlink="http://www.w3.org/1999/xlink" x="0px" y="0px"
	 viewBox="0 0 180 180" style="enable-background:new 0 0 180 180;" xml:space="preserve">
<style type="text/css">
	.st0{fill:#C4ABA3;}
	.st1{opacity:0.41;}
	.st2{filter:url(#Adobe_OpacityMaskFilter);}
	.st3{mask:url(#SVGID_1_);}
	.st4{fill:url(#SVGID_2_);}
	.st5{filter:url(#Adobe_OpacityMaskFilter_1_);}
	.st6{mask:url(#SVGID_3_);}
	.st7{fill:url(#SVGID_4_);}
	.st8{fill:#967248;}
	.st9{fill:#231F20;}
	.st10{fill:#FDD4C8;}
	.st11{opacity:0.32;fill:url(#SVGID_5_);}
	.st12{opacity:0.31;fill:url(#SVGID_6_);}
	.st13{opacity:0.31;fill:url(#SVGID_7_);}
	.st14{opacity:0.58;}
	.st15{fill:url(#SVGID_8_);}
	.st16{fill:url(#SVGID_9_);}
	.st17{fill:#FFFFFF;}
	.st18{opacity:0.49;}
	.st19{filter:url(#Adobe_OpacityMaskFilter_2_);}
	.st20{mask:url(#SVGID_10_);}
	.st21{fill:#FCE6E0;}
	.st22{filter:url(#Adobe_OpacityMaskFilter_3_);}
	.st23{mask:url(#SVGID_11_);}
	.st24{fill:#E0C799;}
</style>
<g id="mouse">
	<g>
		<g>
			<path class="st0" d="M123.4,80.9c0,0-3.6,0.4-5.1,4.1c-1.5,3.7-2.3,6.6,0.8,9.3c3,2.8,6.7,3.1,8,3.3c0,0-4.4,9.4-4.5,16.8
				c-0.1,7.4,0.4,14.7,7.1,16.4c6.6,1.7,10,2.1,12.4,2.1s10.3-0.2,13.8-4.2c3.5-4,2.8-10.9,2.3-15.5s-2.1-11.6-3.5-13.8
				c-1.4-2.2-1.4-2.2-1.4-2.2s4.5,0,6.2-2.4c1.7-2.4,2.9-4.5,2.8-6.7c-0.1-2.3-2.6-7.9-5.8-8.4c-3.2-0.5-5.3,0.8-6.9,2.7
				c-1.6,1.9-3.4,5.4-3.4,5.4s-3.6-0.9-5.6-0.8c-2,0.2-5,0.8-6.1,1.6c0,0-3.3-5.2-5.7-6.3C126.3,81.4,124.9,80.5,123.4,80.9z"/>
			<path d="M142,132.9c-2,0-5.2-0.2-12.4-2.1c-3-0.8-5-2.7-6.1-6.1c-1-3-1.1-6.8-1-10.4c0.1-7,4.1-16,4.4-16.8c-0.1,0-0.1,0-0.2,0
				c-1.5-0.2-4.9-0.7-7.7-3.3c-3.1-2.8-2.2-5.8-0.8-9.4c1.5-3.6,5-4.1,5.2-4.1c1.2-0.3,2.3,0.2,4,1c0.4,0.2,0.8,0.4,1.2,0.6
				c2.2,1,5.3,5.7,5.7,6.2c1.1-0.8,3.9-1.4,6.1-1.6c1.9-0.2,5.2,0.7,5.6,0.8c0.2-0.4,1.9-3.6,3.4-5.4c1.9-2.2,4.1-3.1,7-2.7
				c3.3,0.5,5.7,6.2,5.8,8.4c0.1,2.2-1,4.2-2.9,6.8c-0.9,1.2-2.5,1.8-3.8,2.1c-1.1,0.2-2.1,0.3-2.4,0.3l1.4,2.1
				c1.5,2.2,3,9.4,3.5,13.8c0.5,3.7,1.4,11.3-2.3,15.5C154.5,130.3,150.8,132.9,142,132.9z M124.2,80.9c-0.3,0-0.5,0-0.8,0.1l0,0
				c0,0-3.6,0.4-5.1,4.1c-1.5,3.5-2.3,6.5,0.7,9.3c2.8,2.6,6.2,3.1,7.7,3.3c0.1,0,0.2,0,0.3,0l0.1,0l0,0.1c0,0.1-4.4,9.5-4.5,16.8
				c0,3.6,0,7.3,1,10.3c1.1,3.3,3,5.2,6,6c7.2,1.8,10.4,2.1,12.4,2.1c2.3,0,4.5-0.2,6.4-0.6c3.3-0.7,5.8-1.9,7.3-3.6
				c3.7-4.2,2.7-11.8,2.3-15.4c-0.5-4.3-2.1-11.5-3.5-13.7l-1.5-2.3h0.1c0,0,1.1,0,2.4-0.3c1.2-0.3,2.8-0.8,3.7-2.1
				c1.8-2.5,2.9-4.5,2.8-6.7c-0.1-2.2-2.5-7.8-5.8-8.3c-2.8-0.4-5,0.4-6.9,2.6c-1.6,1.9-3.4,5.4-3.4,5.4l0,0l0,0
				c0,0-3.6-0.9-5.6-0.8c-2.2,0.2-5.1,0.8-6.1,1.6l0,0l0,0c0-0.1-3.3-5.2-5.7-6.2c-0.4-0.2-0.8-0.4-1.2-0.6
				C126.1,81.3,125.1,80.9,124.2,80.9z"/>
		</g>
		<g class="st1">
			<defs>
				<filter id="Adobe_OpacityMaskFilter" filterUnits="userSpaceOnUse" x="148.9" y="81" width="10.9" height="14.2">
					<feFlood  style="flood-color:white;flood-opacity:1" result="back"/>
					<feBlend  in="SourceGraphic" in2="back" mode="normal"/>
				</filter>
			</defs>
			<mask maskUnits="userSpaceOnUse" x="148.9" y="81" width="10.9" height="14.2" id="SVGID_1_">
				<g class="st2">
					
						<image style="overflow:visible;" width="16" height="19" xlink:href="7F726CD9FDA4F48F.jpg"  transform="matrix(1 0 0 1 146.3546 78.8783)">
					</image>
				</g>
			</mask>
			<g class="st3">
				<radialGradient id="SVGID_2_" cx="154.392" cy="88.0913" r="6.3458" gradientUnits="userSpaceOnUse">
					<stop  offset="0.3661" style="stop-color:#FF8EA5"/>
					<stop  offset="1" style="stop-color:#FFCBD6"/>
				</radialGradient>
				<path class="st4" d="M159.9,88.4c0,3.8-2.5,6.9-5.5,6.9c-1.9,0-4.2-0.9-4.9-2.8c-0.3-0.8-0.6-2.6-0.6-4c0-3.8,2.7-7.4,5.8-7.4
					c1.1,0,2.4,0.2,3.3,0.7C159.6,82.7,159.9,86,159.9,88.4z"/>
			</g>
		</g>
		<g class="st1">
			<defs>
				<filter id="Adobe_OpacityMaskFilter_1_" filterUnits="userSpaceOnUse" x="118.7" y="82.4" width="13" height="13.7">
					<feFlood  style="flood-color:white;flood-opacity:1" result="back"/>
					<feBlend  in="SourceGraphic" in2="back" mode="normal"/>
				</filter>
			</defs>
			<mask maskUnits="userSpaceOnUse" x="118.7" y="82.4" width="13" height="13.7" id="SVGID_3_">
				<g class="st5">
					
						<image style="overflow:visible;" width="18" height="19" xlink:href="7F726CD9FDA4F48D.jpg"  transform="matrix(1 0 0 1 116.3546 79.8783)">
					</image>
				</g>
			</mask>
			<g class="st6">
				
					<radialGradient id="SVGID_4_" cx="-422.1055" cy="-58.1778" r="6.5171" gradientTransform="matrix(0.6015 -0.7989 0.7989 0.6015 425.6413 -213.091)" gradientUnits="userSpaceOnUse">
					<stop  offset="0.3661" style="stop-color:#FF8EA5"/>
					<stop  offset="1" style="stop-color:#FFCBD6"/>
				</radialGradient>
				<path class="st7" d="M128.9,84.5c1.9,1.6,3.2,5.2,2.6,7.7c-0.1,0.6-0.5,1-0.8,1.4c-1.1,1.5-3.2,2.8-5.2,2.2
					c-0.9-0.2-2.4-1.1-3.5-2c-3-2.3-4.2-6.6-2.4-9c0.7-0.9,1.6-1.8,2.6-2.2C124.7,81.7,127,83.1,128.9,84.5z"/>
			</g>
		</g>
		<g>
			<path class="st8" d="M145.2,112.4c0,0-4.1-2.5-8.7-1.5c0,0-1.7,1-1.6,3.3c0.1,2.3,0,6,2.1,7.5L145.2,112.4z"/>
			<path class="st9" d="M137.1,121.7L137.1,121.7c-2-1.4-2.1-4.7-2.2-7c0-0.2,0-0.3,0-0.5c0-1.2,0.4-2.1,0.8-2.6
				c0.4-0.5,0.9-0.8,0.9-0.8l0,0c4.5-0.9,8.7,1.5,8.7,1.5l0,0l0,0L137.1,121.7z M136.6,111c-0.1,0.1-1.7,1-1.6,3.3
				c0,0.2,0,0.3,0,0.5c0.1,2.3,0.2,5.5,2.1,6.9l8.1-9.2C144.7,112.2,140.8,110.1,136.6,111z"/>
		</g>
		<g>
			<path class="st10" d="M148.2,132.3c0,0,1.8,1.5,3.4,1.5s2.6-1.2,2.3-1.8c-0.3-0.6-1.1-1.1-1.1-1.1S149.8,132,148.2,132.3z"/>
			<path d="M151.6,133.8c0,0-0.1,0-0.1,0c-1.6-0.1-3.4-1.5-3.4-1.5l0,0l0.1,0c1.7-0.3,4.6-1.4,4.6-1.4l0,0l0,0c0,0,0.8,0.5,1.1,1.1
				c0.1,0.2,0.1,0.5-0.1,0.8C153.4,133.3,152.6,133.8,151.6,133.8z M148.2,132.3c0.3,0.2,1.9,1.4,3.3,1.5c0,0,0.1,0,0.1,0
				c1,0,1.8-0.5,2.1-1.1c0.2-0.3,0.2-0.6,0.1-0.7c-0.3-0.6-1-1-1.1-1.1C152.6,131,149.8,132,148.2,132.3z"/>
		</g>
		<g>
			<path class="st10" d="M129.6,130.8c0,0-0.8,0.3-1,1.5l0.5,0.3v0.7h0.5l0.4,0.5l0.6-0.2c0,0,2.6,0,3.7-1.8
				C134.4,131.9,131.4,131.4,129.6,130.8z"/>
			<path d="M130,133.9L130,133.9l-0.4-0.5h-0.5v-0.7l-0.5-0.3l0,0c0.2-1.2,1-1.5,1-1.5l0,0l0,0c1.8,0.6,4.7,1.1,4.8,1.1l0,0l0,0
				c-1.2,1.8-3.7,1.8-3.7,1.8L130,133.9z M129.1,133.3h0.5l0,0l0.4,0.5l0.6-0.1c0,0,2.5,0,3.7-1.7c-0.3-0.1-3.1-0.5-4.7-1.1
				c-0.1,0-0.8,0.3-1,1.5l0.5,0.3V133.3z"/>
		</g>
		<g>
			<path class="st10" d="M157.3,126.3c0,0,2.4,1.6,4.2,1.8c1.8,0.2,5.5,0.7,6.4,2.8s1.6,5.5-1.4,7.1c-2.9,1.7-7.9,1.4-9.2,1.7
				c-1.4,0.3-6.5,0.7-7.9,1.9c-1.4,1.2,0.4,0.7,0.4,0.7s3.7-1.4,6.7-1.1c2.9,0.2,10.3,0.6,12.2-1.5s3.4-4,2.6-8.8
				c-0.8-4.8-7.4-5.3-7.4-5.3s-4.9-1.2-5.7-2.5L157.3,126.3z"/>
			<path d="M149.1,142.4c-0.1,0-0.2,0-0.3-0.1c-0.1-0.1,0.1-0.4,0.5-0.7c1.1-0.9,4.3-1.4,6.4-1.7c0.6-0.1,1.2-0.2,1.5-0.2
				c0.4-0.1,1-0.1,1.8-0.2c2.1-0.1,5.3-0.3,7.4-1.5c3.3-1.9,1.9-5.9,1.4-7.1c-0.9-2-4.6-2.6-6.4-2.8l0,0c-1.7-0.2-4.1-1.8-4.2-1.8
				l0,0l0,0l1-3.3l0,0c0.3,0.5,1.4,1.1,3.1,1.7c1.3,0.5,2.5,0.8,2.6,0.8c0,0,1.7,0.1,3.4,0.9c1.6,0.7,3.6,2,4,4.5
				c0.8,4.7-0.7,6.7-2.6,8.8c-2,2.1-9.8,1.7-12.2,1.5c-1.5-0.1-3.2,0.2-4.4,0.5c-1.3,0.3-2.2,0.7-2.2,0.7
				C149.8,142.3,149.4,142.4,149.1,142.4z M157.3,126.3c0.2,0.1,2.5,1.6,4.1,1.8l0,0c1.8,0.2,5.5,0.7,6.4,2.8c0.5,1.2,2,5.3-1.4,7.2
				c-2.2,1.2-5.4,1.4-7.5,1.5c-0.8,0-1.4,0.1-1.8,0.2c-0.3,0.1-0.9,0.1-1.5,0.2c-2.1,0.3-5.4,0.7-6.4,1.7c-0.5,0.4-0.5,0.6-0.5,0.7
				c0.1,0.2,0.7,0,0.9-0.1c0,0,0.9-0.3,2.2-0.7c1.2-0.3,2.9-0.6,4.4-0.5c2.4,0.2,10.2,0.6,12.1-1.5c2-2.1,3.4-4.1,2.6-8.8
				c-0.4-2.5-2.4-3.8-4-4.4c-1.7-0.7-3.4-0.9-3.4-0.9c-0.2,0-4.8-1.2-5.7-2.5L157.3,126.3z"/>
		</g>
		<radialGradient id="SVGID_5_" cx="160.2129" cy="132.7309" r="10.5351" gradientUnits="userSpaceOnUse">
			<stop  offset="0.3661" style="stop-color:#FBCAC7"/>
			<stop  offset="0.6695" style="stop-color:#FBD3C7"/>
			<stop  offset="0.8659" style="stop-color:#BDBDBD"/>
			<stop  offset="1" style="stop-color:#858585"/>
		</radialGradient>
		<path class="st11" d="M157.3,126.3c0,0,2.4,1.6,4.2,1.8c1.8,0.2,5.5,0.7,6.4,2.8s1.6,5.5-1.4,7.1c-2.9,1.7-7.9,1.4-9.2,1.7
			c-1.4,0.3-6.5,0.7-7.9,1.9c-1.4,1.2,0.4,0.7,0.4,0.7s3.7-1.4,6.7-1.1c2.9,0.2,10.3,0.6,12.2-1.5s3.4-4,2.6-8.8
			c-0.8-4.8-7.4-5.3-7.4-5.3s-4.9-1.2-5.7-2.5L157.3,126.3z"/>
		<radialGradient id="SVGID_6_" cx="131.508" cy="132.3328" r="2.3087" gradientUnits="userSpaceOnUse">
			<stop  offset="0.3304" style="stop-color:#FBB0C7"/>
			<stop  offset="0.9985" style="stop-color:#858585"/>
		</radialGradient>
		<path class="st12" d="M129.6,130.8c0,0-0.8,0.3-1,1.5l0.5,0.3v0.7h0.5l0.4,0.5l0.6-0.2c0,0,2.5,0,3.7-1.8
			C134.4,131.9,131.4,131.4,129.6,130.8z"/>
		<radialGradient id="SVGID_7_" cx="151.1101" cy="132.3727" r="2.2296" gradientUnits="userSpaceOnUse">
			<stop  offset="0.3304" style="stop-color:#FBB0C7"/>
			<stop  offset="0.9985" style="stop-color:#858585"/>
		</radialGradient>
		<path class="st13" d="M148.3,132.4c0,0,1.7,1.4,3.2,1.4s2.6-1.2,2.3-1.8c-0.3-0.6-1-1-1-1S150.3,132.2,148.3,132.4z"/>
		<path class="st9" d="M131.6,92.5c0.1-0.8,0-1.6-0.1-2.4c-0.1-0.8-0.2-1.6-0.5-2.3c-0.2-0.8-0.6-1.5-1.1-2.1
			c-0.2-0.3-0.5-0.6-0.8-0.9c-0.3-0.3-0.6-0.5-1-0.7c-0.7-0.4-1.4-0.8-2.1-1.2c-0.7-0.3-1.5-0.5-2.3-0.5c-0.8,0-1.6,0.2-2.3,0.7
			c-0.3,0.2-0.7,0.5-0.9,0.7c-0.3,0.3-0.6,0.6-0.8,0.9c0.2-0.3,0.5-0.6,0.8-0.9c0.3-0.3,0.6-0.5,0.9-0.8c0.7-0.4,1.5-0.7,2.3-0.7
			c0.8,0,1.6,0.2,2.3,0.5c0.7,0.3,1.4,0.7,2.1,1.2c0.3,0.2,0.7,0.4,1,0.7c0.3,0.3,0.6,0.6,0.8,0.9c0.5,0.7,0.8,1.4,1.1,2.2
			C131.6,89.3,131.7,90.9,131.6,92.5z"/>
		<path class="st9" d="M133.4,87.4c0.3,0.4,0.6,0.7,0.8,1.1c0.1,0.2,0.2,0.4,0.4,0.6c0.1,0.2,0.2,0.4,0.3,0.6c0-0.1-0.1-0.2-0.2-0.3
			c-0.1-0.1-0.1-0.2-0.2-0.3l-0.4-0.6C133.9,88.2,133.6,87.8,133.4,87.4z"/>
		<path class="st9" d="M146.7,86.7c-0.1,0.4-0.3,0.7-0.5,1.1l-0.3,0.5c-0.1,0.2-0.2,0.4-0.2,0.5c0-0.2,0.1-0.4,0.2-0.6
			c0.1-0.2,0.2-0.4,0.2-0.5C146.3,87.3,146.4,87,146.7,86.7z"/>
		<path class="st9" d="M139.6,103.6c-0.3,0-0.7-0.3-0.9-0.6c-0.1-0.1-0.1-0.3-0.1-0.4c0.1-0.2,0.3-0.2,0.4-0.2c0,0,0,0,0,0l0,0
			c0,0,0.1,0,0.1,0c0.2,0,0.7,0,1.3,0c0.2,0,0.4,0,0.4,0.1c0.1,0.1,0,0.3,0,0.3l0,0c0,0-0.4,0.4-0.8,0.6
			C139.9,103.5,139.8,103.6,139.6,103.6z M139,102.4c-0.1,0-0.3,0.1-0.3,0.2c-0.1,0.1,0,0.2,0.1,0.3c0.3,0.4,0.8,0.7,1.2,0.5
			c0.4-0.2,0.7-0.6,0.8-0.6c0,0,0.1-0.2,0-0.3c-0.1-0.1-0.2-0.1-0.4-0.1C139.8,102.4,139.3,102.4,139,102.4
			C139,102.4,139,102.4,139,102.4C139,102.4,139,102.4,139,102.4z"/>
		<g class="st14">
			<radialGradient id="SVGID_8_" cx="139.7038" cy="102.954" r="0.8774" gradientUnits="userSpaceOnUse">
				<stop  offset="0.3661" style="stop-color:#FF8EA5"/>
				<stop  offset="1" style="stop-color:#FFCBD6"/>
			</radialGradient>
			<path class="st15" d="M139,102.4c-0.1,0-0.6,0.2-0.3,0.6c0.3,0.4,0.9,0.7,1.2,0.5c0.4-0.3,0.8-0.6,0.8-0.6s0.3-0.5-0.4-0.4
				C139.7,102.4,139.1,102.4,139,102.4z"/>
			<path class="st9" d="M139.6,103.6c-0.3,0-0.7-0.3-0.9-0.6c-0.1-0.1-0.1-0.3-0.1-0.4c0.1-0.2,0.3-0.2,0.4-0.2c0,0,0,0,0,0l0,0
				c0,0,0.1,0,0.1,0c0.2,0,0.7,0,1.3,0c0.2,0,0.4,0,0.4,0.1c0.1,0.1,0,0.3,0,0.3l0,0c0,0-0.4,0.4-0.8,0.6
				C139.9,103.5,139.8,103.6,139.6,103.6z M139,102.4c-0.1,0-0.3,0.1-0.3,0.2c-0.1,0.1,0,0.2,0.1,0.3c0.3,0.4,0.8,0.7,1.2,0.5
				c0.4-0.2,0.7-0.6,0.8-0.6c0,0,0.1-0.2,0-0.3c-0.1-0.1-0.2-0.1-0.4-0.1C139.8,102.4,139.3,102.4,139,102.4
				C139,102.4,139,102.4,139,102.4C139,102.4,139,102.4,139,102.4z"/>
		</g>
		<g>
			<radialGradient id="SVGID_9_" cx="139.6162" cy="104.1295" r="0.4187" gradientUnits="userSpaceOnUse">
				<stop  offset="0.3661" style="stop-color:#FF6FA5"/>
				<stop  offset="1" style="stop-color:#FFCBD6"/>
			</radialGradient>
			<path class="st16" d="M139.6,103.5c0,0-0.1,0.6,0,1.2"/>
			<path class="st9" d="M139.6,103.5c0,0.4,0,0.8,0,1.2c-0.1-0.2-0.1-0.4-0.1-0.6C139.6,103.9,139.6,103.7,139.6,103.5z"/>
		</g>
		<g>
			<ellipse class="st9" cx="132.7" cy="97.7" rx="1.1" ry="1.3"/>
			<ellipse transform="matrix(0.866 -0.5 0.5 0.866 -30.8852 79.6239)" class="st17" cx="133.1" cy="97.4" rx="0.3" ry="0.3"/>
			<ellipse transform="matrix(0.866 -0.5 0.5 0.866 -30.6903 79.4783)" class="st17" cx="133" cy="97" rx="0.1" ry="0.1"/>
		</g>
		<g>
			<ellipse class="st9" cx="147.3" cy="97.7" rx="1.1" ry="1.3"/>
			<ellipse transform="matrix(0.866 -0.5 0.5 0.866 -28.9332 86.9086)" class="st17" cx="147.7" cy="97.4" rx="0.3" ry="0.3"/>
			<ellipse transform="matrix(0.866 -0.5 0.5 0.866 -28.7384 86.7631)" class="st17" cx="147.5" cy="97" rx="0.1" ry="0.1"/>
		</g>
		<g class="st18">
			<defs>
				<filter id="Adobe_OpacityMaskFilter_2_" filterUnits="userSpaceOnUse" x="143.2" y="102.4" width="6" height="4.5">
					<feFlood  style="flood-color:white;flood-opacity:1" result="back"/>
					<feBlend  in="SourceGraphic" in2="back" mode="normal"/>
				</filter>
			</defs>
			<mask maskUnits="userSpaceOnUse" x="143.2" y="102.4" width="6" height="4.5" id="SVGID_10_">
				<g class="st19">
					
						<image style="overflow:visible;" width="11" height="10" xlink:href="7F726CD9FDA4F493.jpg"  transform="matrix(1 0 0 1 140.3546 99.8783)">
					</image>
				</g>
			</mask>
			<g class="st20">
				<ellipse class="st21" cx="146.2" cy="104.6" rx="3" ry="2.3"/>
			</g>
		</g>
		<g class="st18">
			<defs>
				<filter id="Adobe_OpacityMaskFilter_3_" filterUnits="userSpaceOnUse" x="130.4" y="102.1" width="6" height="4.5">
					<feFlood  style="flood-color:white;flood-opacity:1" result="back"/>
					<feBlend  in="SourceGraphic" in2="back" mode="normal"/>
				</filter>
			</defs>
			<mask maskUnits="userSpaceOnUse" x="130.4" y="102.1" width="6" height="4.5" id="SVGID_11_">
				<g class="st22">
					
						<image style="overflow:visible;" width="11" height="9" xlink:href="7F726CD9FDA4F495.jpg"  transform="matrix(1 0 0 1 128.3546 99.8783)">
					</image>
				</g>
			</mask>
			<g class="st23">
				<ellipse class="st21" cx="133.4" cy="104.4" rx="3" ry="2.3"/>
			</g>
		</g>
		<g>
			<path class="st24" d="M145.2,112.4c0,0-7.8-1.1-8.5,0.2c-0.8,1.3-0.8,2.9-0.8,2.9s0.2,5.1,1.2,6.1c1,1.1,6.6-0.6,6.6-0.6
				s-0.6-2.4,1.9-2.4L145.2,112.4z"/>
			<path class="st9" d="M138.4,122.1c-0.6,0-1.2-0.1-1.4-0.4c-1-1.1-1.2-5.9-1.2-6.1c0,0,0.1-1.6,0.8-2.9c0.8-1.3,8.2-0.3,8.6-0.3
				l0,0l0,0l0.3,6.3l-0.1,0c-0.7,0-1.3,0.2-1.6,0.6c-0.5,0.7-0.3,1.7-0.3,1.7l0,0l0,0C143.5,121.2,140.4,122.1,138.4,122.1z
				 M139.7,112.1c-1.5,0-2.7,0.1-3,0.6c-0.7,1.3-0.8,2.9-0.8,2.9c0,0,0.2,5,1.1,6.1c0.9,1,6-0.5,6.5-0.6c0-0.2-0.2-1.1,0.3-1.8
				c0.3-0.4,0.9-0.6,1.6-0.6c0,0,0,0,0,0l-0.3-6.2C144.8,112.4,142,112.1,139.7,112.1z"/>
		</g>
		<g>
			<path class="st0" d="M150,114c0,0-0.6,0.6-1.3,1.1c-0.7,0.5-2.4,0.9-2.8,0.8c-0.4-0.1-0.5,0.5-1.2,0.5c-0.7,0,0-1,0-1
				s-0.5,0.4-0.8,0c-0.3-0.4,0.9-0.7,0.5-0.7s-0.4-0.5-0.2-0.7c0.2-0.2,0.7-0.2,1.7-0.6c1-0.4,2-1.8,2-1.8L150,114z"/>
			<path d="M144.7,116.4c-0.1,0-0.3,0-0.3-0.1c-0.1-0.2,0-0.6,0.2-0.8c-0.2,0.1-0.5,0.1-0.7-0.1c0-0.1-0.1-0.1,0-0.2
				c0-0.2,0.3-0.3,0.5-0.4c0.1,0,0.1-0.1,0.2-0.1c0,0,0,0,0,0c-0.2,0-0.3-0.1-0.3-0.3c-0.1-0.2,0-0.4,0.1-0.5
				c0.1-0.1,0.3-0.1,0.6-0.2c0.3-0.1,0.6-0.2,1.1-0.3c1-0.4,2-1.8,2-1.8l0.1,0.1c0,0.1-1,1.5-2,1.9c-0.5,0.2-0.9,0.3-1.1,0.4
				c-0.3,0.1-0.4,0.1-0.5,0.2c-0.1,0.1-0.1,0.3-0.1,0.4c0,0.1,0.1,0.2,0.3,0.2c0,0,0.1,0,0.1,0.1c0,0.1-0.1,0.1-0.2,0.2
				c-0.2,0.1-0.4,0.2-0.4,0.4c0,0,0,0.1,0,0.1c0.2,0.3,0.7,0,0.7,0l0.2-0.1l-0.1,0.2c-0.1,0.2-0.3,0.6-0.2,0.8
				C144.5,116.3,144.6,116.3,144.7,116.4c0.3-0.1,0.6-0.2,0.7-0.4c0.2-0.1,0.3-0.2,0.5-0.2c0.3,0,2.1-0.3,2.8-0.8
				c0.7-0.5,1.3-1.1,1.3-1.1l0.1,0.1c0,0-0.6,0.6-1.3,1.2c-0.7,0.6-2.5,0.9-2.8,0.8c-0.1,0-0.3,0.1-0.4,0.2
				C145.3,116.3,145.1,116.4,144.7,116.4z"/>
		</g>
		<g>
			<path class="st0" d="M131.8,114.7c0,0,0.8,0.7,1.3,1c0.5,0.3,2,0.7,2.2,0.8c0.2,0,0.7,0.8,1.1,1c0.3,0.2,0.3-0.8,0.1-1
				s-0.2-0.3,0.2-0.5c0.3-0.2,0-0.6-0.2-0.6s-0.4-0.1,0-0.3c0.4-0.2,0.4-0.5,0.2-0.5c-0.2,0-1.2,0-1.8-0.3c-0.6-0.3-2-2.4-2-2.4
				L131.8,114.7z"/>
			<path d="M136.5,117.5c0,0-0.1,0-0.1,0c-0.2-0.1-0.4-0.3-0.6-0.5c-0.2-0.2-0.4-0.4-0.5-0.5c-0.2,0-1.7-0.5-2.2-0.8
				c-0.5-0.3-1.3-1-1.3-1l0.1-0.1c0,0,0.8,0.7,1.3,1c0.5,0.3,2,0.7,2.2,0.8c0.1,0,0.3,0.2,0.5,0.5c0.2,0.2,0.4,0.4,0.5,0.5
				c0.1,0,0.1,0,0.1,0c0.1-0.1,0.1-0.8,0-0.9c-0.1-0.2-0.2-0.3,0.2-0.5c0.1-0.1,0.1-0.1,0.1-0.2c0-0.2-0.2-0.3-0.2-0.3
				c-0.1,0-0.2-0.1-0.2-0.2c0-0.1,0-0.2,0.2-0.3c0.2-0.1,0.3-0.2,0.3-0.3c0-0.1,0-0.1-0.1-0.1c-0.1,0-0.2,0-0.3,0
				c-0.4,0-1-0.1-1.5-0.3c-0.6-0.3-1.9-2.3-2-2.4l0.1-0.1c0,0,1.4,2.1,2,2.3c0.4,0.2,1.1,0.3,1.5,0.3c0.1,0,0.3,0,0.3,0
				c0.1,0,0.2,0.1,0.2,0.2c0,0.1-0.1,0.3-0.3,0.4c-0.1,0.1-0.2,0.1-0.2,0.2c0,0,0.1,0.1,0.1,0.1c0.1,0,0.3,0.2,0.3,0.3
				c0,0.1,0,0.3-0.1,0.3c-0.3,0.2-0.3,0.2-0.1,0.4c0.1,0.2,0.2,0.9,0,1C136.6,117.5,136.6,117.5,136.5,117.5z"/>
		</g>
		<path d="M146.9,103.5c0.3-0.2,0.5-0.3,0.8-0.4c0.3-0.1,0.5-0.3,0.8-0.4c0.6-0.2,1.1-0.5,1.7-0.6c-0.3,0.1-0.6,0.2-0.9,0.3
			c-0.3,0.1-0.6,0.2-0.8,0.3C148,103,147.4,103.3,146.9,103.5z"/>
		<path d="M146.6,104.1c0.5,0,0.9-0.1,1.4-0.1l1.4-0.1l1.4,0c0.5,0,0.9,0,1.4,0c-0.5,0-0.9,0.1-1.4,0.1l-1.4,0.1l-1.4,0
			C147.5,104.1,147.1,104.1,146.6,104.1z"/>
		<path d="M146.9,104.9c0.4,0.1,0.8,0.2,1.2,0.3l1.2,0.3l1.2,0.3c0.2,0,0.4,0.1,0.6,0.1c0.2,0,0.4,0.1,0.6,0.1
			c-0.4,0-0.8-0.1-1.2-0.2c-0.4-0.1-0.8-0.2-1.2-0.3c-0.4-0.1-0.8-0.2-1.2-0.3C147.7,105.1,147.3,105,146.9,104.9z"/>
		<path d="M131.9,103.5c-0.7,0-1.4-0.1-2.1-0.2c-0.3,0-0.7-0.1-1-0.2c-0.3-0.1-0.7-0.1-1-0.3c0.2,0,0.3,0.1,0.5,0.1
			c0.2,0,0.3,0.1,0.5,0.1c0.3,0,0.7,0.1,1,0.1C130.5,103.4,131.2,103.4,131.9,103.5z"/>
		<path d="M132,104.4c-0.7,0.2-1.4,0.3-2.1,0.4c-0.3,0.1-0.7,0.1-1,0.2c-0.3,0-0.7,0.1-1,0.1l1-0.2l1-0.2
			C130.7,104.6,131.4,104.5,132,104.4z"/>
		<path d="M132.3,105.4c-0.7,0.2-1.4,0.5-2.1,0.7l-1.1,0.3c-0.2,0.1-0.4,0.1-0.5,0.2c-0.2,0.1-0.4,0.1-0.5,0.2
			c0.3-0.2,0.7-0.3,1-0.4c0.3-0.1,0.7-0.2,1.1-0.3C130.9,105.8,131.6,105.6,132.3,105.4z"/>
		<path class="st9" d="M149.4,92.1c-0.4-1.4-0.6-2.9-0.5-4.3c0-0.2,0-0.4,0.1-0.5c0-0.2,0.1-0.4,0.1-0.5c0-0.2,0.1-0.4,0.1-0.5
			c0.1-0.2,0.1-0.3,0.2-0.5c0.3-0.7,0.6-1.3,1-2c0.4-0.6,0.9-1.2,1.4-1.7l0.2-0.2c0.1-0.1,0.1-0.1,0.2-0.2c0.1-0.1,0.3-0.2,0.5-0.3
			c0.1,0,0.2-0.1,0.2-0.1l0.3-0.1c0.1,0,0.2-0.1,0.3-0.1c0.1,0,0.2-0.1,0.3-0.1c0.2,0,0.4-0.1,0.5-0.1c0.2,0,0.4,0,0.5,0
			c0.4,0,0.7,0,1.1,0.1c0.4,0.1,0.7,0.1,1.1,0.2c0.3,0.1,0.7,0.2,1,0.4c-0.3-0.2-0.7-0.3-1-0.4c-0.3-0.1-0.7-0.2-1.1-0.2
			c-0.4-0.1-0.7-0.1-1.1-0.1c-0.2,0-0.4,0-0.5,0c-0.2,0-0.4,0-0.5,0.1c-0.1,0-0.2,0-0.3,0.1c-0.1,0-0.2,0.1-0.3,0.1l-0.2,0.1
			c-0.1,0-0.2,0.1-0.2,0.1c-0.2,0.1-0.3,0.2-0.5,0.3c-0.1,0.1-0.1,0.1-0.2,0.2l-0.2,0.2c-0.5,0.5-1,1-1.4,1.7
			c-0.4,0.6-0.7,1.3-1,1.9c-0.3,0.7-0.4,1.4-0.5,2.1c-0.1,0.7,0,1.5,0,2.2C149.1,90.7,149.2,91.4,149.4,92.1z"/>
	</g>
</g>
<g id="cheese">
	<g>
		
			<image style="overflow:visible;" width="256" height="296" xlink:href="../imgs/parm1.png"  transform="matrix(0.531 0 0 0.531 23.3546 13.8783)">
		</image>
	</g>
</g>
</svg>
