<?xml version="1.0" encoding="utf-8"?>
<!-- Generator: Adobe Illustrator 21.0.2, SVG Export Plug-In . SVG Version: 6.00 Build 0)  -->
<svg version="1.1" xmlns="http://www.w3.org/2000/svg" xmlns:xlink="http://www.w3.org/1999/xlink" x="0px" y="0px"
	 viewBox="0 0 180 180" style="enable-background:new 0 0 180 180;" xml:space="preserve">
<style type="text/css">
	.st0{fill:#C4ABA3;}
	.st1{opacity:0.41;}
	.st2{filter:url(#Adobe_OpacityMaskFilter);}
	.st3{mask:url(#SVGID_1_);}
	.st4{fill:url(#SVGID_2_);}
	.st5{filter:url(#Adobe_OpacityMaskFilter_1_);}
	.st6{mask:url(#SVGID_3_);}
	.st7{fill:url(#SVGID_4_);}
	.st8{fill:#967248;}
	.st9{fill:#231F20;}
	.st10{fill:#FDD4C8;}
	.st11{opacity:0.32;fill:url(#SVGID_5_);}
	.st12{opacity:0.31;fill:url(#SVGID_6_);}
	.st13{opacity:0.31;fill:url(#SVGID_7_);}
	.st14{opacity:0.58;}
	.st15{fill:url(#SVGID_8_);}
	.st16{fill:url(#SVGID_9_);}
	.st17{fill:#FFFFFF;}
	.st18{opacity:0.49;}
	.st19{filter:url(#Adobe_OpacityMaskFilter_2_);}
	.st20{mask:url(#SVGID_10_);}
	.st21{fill:#FCE6E0;}
	.st22{filter:url(#Adobe_OpacityMaskFilter_3_);}
	.st23{mask:url(#SVGID_11_);}
	.st24{fill:#E0C799;}
</style>
<g id="Layer_2">
	<g>
		<g>
			<path class="st0" d="M123.7,81.3c0,0-3.6,0.4-5.1,4.1c-1.5,3.7-2.3,6.6,0.8,9.3c3,2.8,6.7,3.1,8,3.3c0,0-4.4,9.4-4.5,16.8
				c-0.1,7.4,0.4,14.7,7.1,16.4c6.6,1.7,10,2.1,12.4,2.1c2.4,0,10.3-0.2,13.8-4.2c3.5-4,2.8-10.9,2.3-15.5
				c-0.6-4.6-2.1-11.6-3.5-13.8c-1.4-2.2-1.4-2.2-1.4-2.2s4.5,0,6.2-2.4c1.7-2.4,2.9-4.5,2.8-6.7c-0.1-2.3-2.6-7.9-5.8-8.4
				c-3.2-0.5-5.3,0.8-6.9,2.7c-1.6,1.9-3.4,5.4-3.4,5.4s-3.6-0.9-5.6-0.8c-2,0.2-5,0.8-6.1,1.6c0,0-3.3-5.2-5.7-6.3
				C126.6,81.7,125.2,80.8,123.7,81.3z"/>
			<path d="M142.3,133.2c-2,0-5.2-0.2-12.4-2.1c-3-0.8-5-2.7-6.1-6.1c-1-3-1.1-6.8-1-10.4c0.1-7,4.1-16,4.4-16.8c-0.1,0-0.1,0-0.2,0
				c-1.5-0.2-4.9-0.7-7.7-3.3c-3.1-2.8-2.2-5.8-0.8-9.4c1.5-3.6,5-4.1,5.2-4.1c1.2-0.3,2.3,0.2,4,1c0.4,0.2,0.8,0.4,1.2,0.6
				c2.2,1,5.3,5.7,5.7,6.2c1.1-0.8,3.9-1.4,6.1-1.6c1.9-0.2,5.2,0.7,5.6,0.8c0.2-0.4,1.9-3.6,3.4-5.4c1.9-2.2,4.1-3.1,7-2.7
				c3.3,0.5,5.7,6.2,5.8,8.4c0.1,2.2-1,4.2-2.9,6.8c-0.9,1.2-2.5,1.8-3.8,2.1c-1.1,0.2-2.1,0.3-2.4,0.3l1.4,2.1
				c1.5,2.2,3,9.4,3.5,13.8c0.5,3.7,1.4,11.3-2.3,15.5C154.8,130.6,151.1,133.2,142.3,133.2z M124.5,81.2c-0.3,0-0.5,0-0.8,0.1l0,0
				c0,0-3.6,0.4-5.1,4.1c-1.5,3.5-2.3,6.5,0.7,9.3c2.8,2.6,6.2,3.1,7.7,3.3c0.1,0,0.2,0,0.3,0l0.1,0l0,0.1c0,0.1-4.4,9.5-4.5,16.8
				c0,3.6,0,7.3,1,10.3c1.1,3.3,3,5.2,6,6c7.2,1.8,10.4,2.1,12.4,2.1c2.3,0,4.5-0.2,6.4-0.6c3.3-0.7,5.8-1.9,7.3-3.6
				c3.7-4.2,2.7-11.8,2.3-15.4c-0.5-4.3-2.1-11.5-3.5-13.7l-1.5-2.3h0.1c0,0,1.1,0,2.4-0.3c1.2-0.3,2.8-0.8,3.7-2.1
				c1.8-2.5,2.9-4.5,2.8-6.7c-0.1-2.2-2.5-7.8-5.8-8.3c-2.8-0.4-5,0.4-6.9,2.6c-1.6,1.9-3.4,5.4-3.4,5.4l0,0l0,0
				c0,0-3.6-0.9-5.6-0.8c-2.2,0.2-5.1,0.8-6.1,1.6l0,0l0,0c0-0.1-3.3-5.2-5.7-6.2c-0.4-0.2-0.8-0.4-1.2-0.6
				C126.4,81.6,125.4,81.2,124.5,81.2z"/>
		</g>
		<g class="st1">
			<defs>
				<filter id="Adobe_OpacityMaskFilter" filterUnits="userSpaceOnUse" x="149.2" y="81.3" width="10.9" height="14.2">
					<feFlood  style="flood-color:white;flood-opacity:1" result="back"/>
					<feBlend  in="SourceGraphic" in2="back" mode="normal"/>
				</filter>
			</defs>
			<mask maskUnits="userSpaceOnUse" x="149.2" y="81.3" width="10.9" height="14.2" id="SVGID_1_">
				<g class="st2">
					
						<image style="overflow:visible;" width="64" height="77" xlink:href="783DA2F3DD3681BC.jpg"  transform="matrix(0.24 0 0 0.24 147.1811 79.174)">
					</image>
				</g>
			</mask>
			<g class="st3">
				<radialGradient id="SVGID_2_" cx="154.6931" cy="88.4252" r="6.3458" gradientUnits="userSpaceOnUse">
					<stop  offset="0.3661" style="stop-color:#FF8EA5"/>
					<stop  offset="1" style="stop-color:#FFCBD6"/>
				</radialGradient>
				<path class="st4" d="M160.2,88.7c0,3.8-2.5,6.9-5.5,6.9c-1.9,0-4.2-0.9-4.9-2.8c-0.3-0.8-0.6-2.6-0.6-4c0-3.8,2.7-7.4,5.8-7.4
					c1.1,0,2.4,0.2,3.3,0.7C159.9,83.1,160.2,86.3,160.2,88.7z"/>
			</g>
		</g>
		<g class="st1">
			<defs>
				<filter id="Adobe_OpacityMaskFilter_1_" filterUnits="userSpaceOnUse" x="119" y="82.7" width="13" height="13.7">
					<feFlood  style="flood-color:white;flood-opacity:1" result="back"/>
					<feBlend  in="SourceGraphic" in2="back" mode="normal"/>
				</filter>
			</defs>
			<mask maskUnits="userSpaceOnUse" x="119" y="82.7" width="13" height="13.7" id="SVGID_3_">
				<g class="st5">
					
						<image style="overflow:visible;" width="72" height="75" xlink:href="783DA2F3DD3681BD.jpg"  transform="matrix(0.24 0 0 0.24 116.9411 80.614)">
					</image>
				</g>
			</mask>
			<g class="st6">
				
					<radialGradient id="SVGID_4_" cx="67.9283" cy="185.7611" r="6.5171" gradientTransform="matrix(0.6015 -0.7989 0.7989 0.6015 -63.6812 32.0043)" gradientUnits="userSpaceOnUse">
					<stop  offset="0.3661" style="stop-color:#FF8EA5"/>
					<stop  offset="1" style="stop-color:#FFCBD6"/>
				</radialGradient>
				<path class="st7" d="M129.2,84.9c1.9,1.6,3.2,5.2,2.6,7.7c-0.1,0.6-0.5,1-0.8,1.4c-1.1,1.5-3.2,2.8-5.2,2.2
					c-0.9-0.2-2.4-1.1-3.5-2c-3-2.3-4.2-6.6-2.4-9c0.7-0.9,1.6-1.8,2.6-2.2C125,82,127.3,83.5,129.2,84.9z"/>
			</g>
		</g>
		<g>
			<path class="st8" d="M145.5,112.8c0,0-4.1-2.5-8.7-1.5c0,0-1.7,1-1.6,3.3c0.1,2.3,0,6,2.1,7.5L145.5,112.8z"/>
			<path class="st9" d="M137.4,122.1L137.4,122.1c-2-1.4-2.1-4.7-2.2-7c0-0.2,0-0.3,0-0.5c0-1.2,0.4-2.1,0.8-2.6
				c0.4-0.5,0.9-0.8,0.9-0.8l0,0c4.5-0.9,8.7,1.5,8.7,1.5l0,0l0,0L137.4,122.1z M136.9,111.3c-0.1,0.1-1.7,1-1.6,3.3
				c0,0.2,0,0.3,0,0.5c0.1,2.3,0.2,5.5,2.1,6.9l8.1-9.2C145,112.5,141.1,110.4,136.9,111.3z"/>
		</g>
		<g>
			<path class="st10" d="M148.5,132.6c0,0,1.8,1.5,3.4,1.5c1.6,0.1,2.6-1.2,2.3-1.8s-1.1-1.1-1.1-1.1S150.1,132.4,148.5,132.6z"/>
			<path d="M151.9,134.2c0,0-0.1,0-0.1,0c-1.6-0.1-3.4-1.5-3.4-1.5l0,0l0.1,0c1.7-0.3,4.6-1.4,4.6-1.4l0,0l0,0c0,0,0.8,0.5,1.1,1.1
				c0.1,0.2,0.1,0.5-0.1,0.8C153.7,133.6,152.9,134.2,151.9,134.2z M148.5,132.6c0.3,0.2,1.9,1.4,3.3,1.5c0,0,0.1,0,0.1,0
				c1,0,1.8-0.5,2.1-1.1c0.2-0.3,0.2-0.6,0.1-0.7c-0.3-0.6-1-1-1.1-1.1C152.9,131.3,150.1,132.4,148.5,132.6z"/>
		</g>
		<g>
			<path class="st10" d="M129.9,131.1c0,0-0.8,0.3-1,1.5l0.5,0.3v0.7h0.5l0.4,0.5l0.6-0.2c0,0,2.6,0,3.7-1.8
				C134.7,132.2,131.7,131.7,129.9,131.1z"/>
			<path d="M130.3,134.2L130.3,134.2l-0.4-0.5h-0.5V133l-0.5-0.3l0,0c0.2-1.2,1-1.5,1-1.5l0,0l0,0c1.8,0.6,4.7,1.1,4.8,1.1l0,0l0,0
				c-1.2,1.8-3.7,1.8-3.7,1.8L130.3,134.2z M129.4,133.7h0.5l0,0l0.4,0.5l0.6-0.1c0,0,2.5,0,3.7-1.7c-0.3-0.1-3.1-0.5-4.7-1.1
				c-0.1,0-0.8,0.3-1,1.5l0.5,0.3V133.7z"/>
		</g>
		<g>
			<path class="st10" d="M157.6,126.6c0,0,2.4,1.6,4.2,1.8c1.8,0.2,5.5,0.7,6.4,2.8c0.9,2.1,1.6,5.5-1.4,7.1
				c-2.9,1.7-7.9,1.4-9.2,1.7s-6.5,0.7-7.9,1.9c-1.4,1.2,0.4,0.7,0.4,0.7s3.7-1.4,6.7-1.1c2.9,0.2,10.3,0.6,12.2-1.5
				c1.9-2,3.4-4,2.6-8.8c-0.8-4.8-7.4-5.3-7.4-5.3s-4.9-1.2-5.7-2.5L157.6,126.6z"/>
			<path d="M149.4,142.8c-0.1,0-0.2,0-0.3-0.1c-0.1-0.1,0.1-0.4,0.5-0.7c1.1-0.9,4.3-1.4,6.4-1.7c0.6-0.1,1.2-0.2,1.5-0.2
				c0.4-0.1,1-0.1,1.8-0.2c2.1-0.1,5.3-0.3,7.4-1.5c3.3-1.9,1.9-5.9,1.4-7.1c-0.9-2-4.6-2.6-6.4-2.8l0,0c-1.7-0.2-4.1-1.8-4.2-1.8
				l0,0l0,0l1-3.3l0,0c0.3,0.5,1.4,1.1,3.1,1.7c1.3,0.5,2.5,0.8,2.6,0.8c0,0,1.7,0.1,3.4,0.9c1.6,0.7,3.6,2,4,4.5
				c0.8,4.7-0.7,6.7-2.6,8.8c-2,2.1-9.8,1.7-12.2,1.5c-1.5-0.1-3.2,0.2-4.4,0.5c-1.3,0.3-2.2,0.7-2.2,0.7
				C150.1,142.7,149.7,142.8,149.4,142.8z M157.6,126.6c0.2,0.1,2.5,1.6,4.1,1.8l0,0c1.8,0.2,5.5,0.7,6.4,2.8c0.5,1.2,2,5.3-1.4,7.2
				c-2.2,1.2-5.4,1.4-7.5,1.5c-0.8,0-1.4,0.1-1.8,0.2c-0.3,0.1-0.9,0.1-1.5,0.2c-2.1,0.3-5.4,0.7-6.4,1.7c-0.5,0.4-0.5,0.6-0.5,0.7
				c0.1,0.2,0.7,0,0.9-0.1c0,0,0.9-0.3,2.2-0.7c1.2-0.3,2.9-0.6,4.4-0.5c2.4,0.2,10.2,0.6,12.1-1.5c2-2.1,3.4-4.1,2.6-8.8
				c-0.4-2.5-2.4-3.8-4-4.4c-1.7-0.7-3.4-0.9-3.4-0.9c-0.2,0-4.8-1.2-5.7-2.5L157.6,126.6z"/>
		</g>
		<radialGradient id="SVGID_5_" cx="160.514" cy="133.0649" r="10.5351" gradientUnits="userSpaceOnUse">
			<stop  offset="0.3661" style="stop-color:#FBCAC7"/>
			<stop  offset="0.6695" style="stop-color:#FBD3C7"/>
			<stop  offset="0.8659" style="stop-color:#BDBDBD"/>
			<stop  offset="1" style="stop-color:#858585"/>
		</radialGradient>
		<path class="st11" d="M157.6,126.6c0,0,2.4,1.6,4.2,1.8c1.8,0.2,5.5,0.7,6.4,2.8c0.9,2.1,1.6,5.5-1.4,7.1
			c-2.9,1.7-7.9,1.4-9.2,1.7s-6.5,0.7-7.9,1.9c-1.4,1.2,0.4,0.7,0.4,0.7s3.7-1.4,6.7-1.1c2.9,0.2,10.3,0.6,12.2-1.5
			c1.9-2,3.4-4,2.6-8.8c-0.8-4.8-7.4-5.3-7.4-5.3s-4.9-1.2-5.7-2.5L157.6,126.6z"/>
		<radialGradient id="SVGID_6_" cx="131.8091" cy="132.6668" r="2.3087" gradientUnits="userSpaceOnUse">
			<stop  offset="0.3304" style="stop-color:#FBB0C7"/>
			<stop  offset="0.9985" style="stop-color:#858585"/>
		</radialGradient>
		<path class="st12" d="M129.9,131.1c0,0-0.8,0.3-1,1.5l0.5,0.3v0.7h0.5l0.4,0.5l0.6-0.2c0,0,2.5,0,3.7-1.8
			C134.7,132.2,131.7,131.8,129.9,131.1z"/>
		<radialGradient id="SVGID_7_" cx="151.4112" cy="132.7066" r="2.2296" gradientUnits="userSpaceOnUse">
			<stop  offset="0.3304" style="stop-color:#FBB0C7"/>
			<stop  offset="0.9985" style="stop-color:#858585"/>
		</radialGradient>
		<path class="st13" d="M148.6,132.7c0,0,1.7,1.4,3.2,1.4c1.6,0.1,2.6-1.2,2.3-1.8s-1-1-1-1S150.6,132.5,148.6,132.7z"/>
		<path class="st9" d="M131.9,92.9c0.1-0.8,0-1.6-0.1-2.4c-0.1-0.8-0.2-1.6-0.5-2.3c-0.2-0.8-0.6-1.5-1.1-2.1
			c-0.2-0.3-0.5-0.6-0.8-0.9c-0.3-0.3-0.6-0.5-1-0.7c-0.7-0.4-1.4-0.8-2.1-1.2c-0.7-0.3-1.5-0.5-2.3-0.5c-0.8,0-1.6,0.2-2.3,0.7
			c-0.3,0.2-0.7,0.5-0.9,0.7c-0.3,0.3-0.6,0.6-0.8,0.9c0.2-0.3,0.5-0.6,0.8-0.9c0.3-0.3,0.6-0.5,0.9-0.8c0.7-0.4,1.5-0.7,2.3-0.7
			c0.8,0,1.6,0.2,2.3,0.5c0.7,0.3,1.4,0.7,2.1,1.2c0.3,0.2,0.7,0.4,1,0.7c0.3,0.3,0.6,0.6,0.8,0.9c0.5,0.7,0.8,1.4,1.1,2.2
			C131.9,89.6,132,91.3,131.9,92.9z"/>
		<path class="st9" d="M133.7,87.7c0.3,0.4,0.6,0.7,0.8,1.1c0.1,0.2,0.2,0.4,0.4,0.6c0.1,0.2,0.2,0.4,0.3,0.6c0-0.1-0.1-0.2-0.2-0.3
			c-0.1-0.1-0.1-0.2-0.2-0.3l-0.4-0.6C134.2,88.5,133.9,88.1,133.7,87.7z"/>
		<path class="st9" d="M147,87c-0.1,0.4-0.3,0.7-0.5,1.1l-0.3,0.5c-0.1,0.2-0.2,0.4-0.2,0.5c0-0.2,0.1-0.4,0.2-0.6
			c0.1-0.2,0.2-0.4,0.2-0.5C146.6,87.7,146.7,87.3,147,87z"/>
		<path class="st9" d="M139.9,103.9c-0.3,0-0.7-0.3-0.9-0.6c-0.1-0.1-0.1-0.3-0.1-0.4c0.1-0.2,0.3-0.2,0.4-0.2c0,0,0,0,0,0l0,0
			c0,0,0.1,0,0.1,0c0.2,0,0.7,0,1.3,0c0.2,0,0.4,0,0.4,0.1c0.1,0.1,0,0.3,0,0.3l0,0c0,0-0.4,0.4-0.8,0.6
			C140.2,103.9,140.1,103.9,139.9,103.9z M139.3,102.7c-0.1,0-0.3,0.1-0.3,0.2c-0.1,0.1,0,0.2,0.1,0.3c0.3,0.4,0.8,0.7,1.2,0.5
			c0.4-0.2,0.7-0.6,0.8-0.6c0,0,0.1-0.2,0-0.3c-0.1-0.1-0.2-0.1-0.4-0.1C140.1,102.8,139.6,102.7,139.3,102.7
			C139.3,102.7,139.3,102.7,139.3,102.7C139.3,102.7,139.3,102.7,139.3,102.7z"/>
		<g class="st14">
			<radialGradient id="SVGID_8_" cx="140.005" cy="103.288" r="0.8774" gradientUnits="userSpaceOnUse">
				<stop  offset="0.3661" style="stop-color:#FF8EA5"/>
				<stop  offset="1" style="stop-color:#FFCBD6"/>
			</radialGradient>
			<path class="st15" d="M139.3,102.7c-0.1,0-0.6,0.2-0.3,0.6c0.3,0.4,0.9,0.7,1.2,0.5s0.8-0.6,0.8-0.6s0.3-0.5-0.4-0.4
				C140,102.7,139.4,102.7,139.3,102.7z"/>
			<path class="st9" d="M139.9,103.9c-0.3,0-0.7-0.3-0.9-0.6c-0.1-0.1-0.1-0.3-0.1-0.4c0.1-0.2,0.3-0.2,0.4-0.2c0,0,0,0,0,0l0,0
				c0,0,0.1,0,0.1,0c0.2,0,0.7,0,1.3,0c0.2,0,0.4,0,0.4,0.1c0.1,0.1,0,0.3,0,0.3l0,0c0,0-0.4,0.4-0.8,0.6
				C140.2,103.9,140.1,103.9,139.9,103.9z M139.3,102.7c-0.1,0-0.3,0.1-0.3,0.2c-0.1,0.1,0,0.2,0.1,0.3c0.3,0.4,0.8,0.7,1.2,0.5
				c0.4-0.2,0.7-0.6,0.8-0.6c0,0,0.1-0.2,0-0.3c-0.1-0.1-0.2-0.1-0.4-0.1C140.1,102.8,139.6,102.7,139.3,102.7
				C139.3,102.7,139.3,102.7,139.3,102.7C139.3,102.7,139.3,102.7,139.3,102.7z"/>
		</g>
		<g>
			<radialGradient id="SVGID_9_" cx="139.9173" cy="104.4635" r="0.4187" gradientUnits="userSpaceOnUse">
				<stop  offset="0.3661" style="stop-color:#FF6FA5"/>
				<stop  offset="1" style="stop-color:#FFCBD6"/>
			</radialGradient>
			<path class="st16" d="M139.9,103.9c0,0-0.1,0.6,0,1.2"/>
			<path class="st9" d="M139.9,103.9c0,0.4,0,0.8,0,1.2c-0.1-0.2-0.1-0.4-0.1-0.6C139.9,104.3,139.9,104.1,139.9,103.9z"/>
		</g>
		<g>
			<ellipse class="st9" cx="133" cy="98.1" rx="1.1" ry="1.3"/>
			<ellipse transform="matrix(0.866 -0.5 0.5 0.866 -31.0118 79.8192)" class="st17" cx="133.4" cy="97.8" rx="0.3" ry="0.3"/>
			<ellipse transform="matrix(0.866 -0.5 0.5 0.866 -30.817 79.6736)" class="st17" cx="133.3" cy="97.3" rx="0.1" ry="0.1"/>
		</g>
		<g>
			<ellipse class="st9" cx="147.6" cy="98.1" rx="1.1" ry="1.3"/>
			<ellipse transform="matrix(0.866 -0.5 0.5 0.866 -29.0599 87.1039)" class="st17" cx="148" cy="97.8" rx="0.3" ry="0.3"/>
			<ellipse transform="matrix(0.866 -0.5 0.5 0.866 -28.865 86.9584)" class="st17" cx="147.8" cy="97.3" rx="0.1" ry="0.1"/>
		</g>
		<g class="st18">
			<defs>
				<filter id="Adobe_OpacityMaskFilter_2_" filterUnits="userSpaceOnUse" x="143.5" y="102.7" width="6" height="4.5">
					<feFlood  style="flood-color:white;flood-opacity:1" result="back"/>
					<feBlend  in="SourceGraphic" in2="back" mode="normal"/>
				</filter>
			</defs>
			<mask maskUnits="userSpaceOnUse" x="143.5" y="102.7" width="6" height="4.5" id="SVGID_10_">
				<g class="st19">
					
						<image style="overflow:visible;" width="43" height="38" xlink:href="783DA2F3DD3681B2.jpg"  transform="matrix(0.24 0 0 0.24 141.4211 100.534)">
					</image>
				</g>
			</mask>
			<g class="st20">
				<ellipse class="st21" cx="146.5" cy="105" rx="3" ry="2.3"/>
			</g>
		</g>
		<g class="st18">
			<defs>
				<filter id="Adobe_OpacityMaskFilter_3_" filterUnits="userSpaceOnUse" x="130.7" y="102.5" width="6" height="4.5">
					<feFlood  style="flood-color:white;flood-opacity:1" result="back"/>
					<feBlend  in="SourceGraphic" in2="back" mode="normal"/>
				</filter>
			</defs>
			<mask maskUnits="userSpaceOnUse" x="130.7" y="102.5" width="6" height="4.5" id="SVGID_11_">
				<g class="st22">
					
						<image style="overflow:visible;" width="42" height="38" xlink:href="783DA2F3DD3681B3.jpg"  transform="matrix(0.24 0 0 0.24 128.7011 100.294)">
					</image>
				</g>
			</mask>
			<g class="st23">
				<ellipse class="st21" cx="133.7" cy="104.7" rx="3" ry="2.3"/>
			</g>
		</g>
		<g>
			<path class="st24" d="M145.5,112.8c0,0-7.8-1.1-8.5,0.2c-0.8,1.3-0.8,2.9-0.8,2.9s0.2,5.1,1.2,6.1c1,1.1,6.6-0.6,6.6-0.6
				s-0.6-2.4,1.9-2.4L145.5,112.8z"/>
			<path class="st9" d="M138.7,122.4c-0.6,0-1.2-0.1-1.4-0.4c-1-1.1-1.2-5.9-1.2-6.1c0,0,0.1-1.6,0.8-2.9c0.8-1.3,8.2-0.3,8.6-0.3
				l0,0l0,0l0.3,6.3l-0.1,0c-0.7,0-1.3,0.2-1.6,0.6c-0.5,0.7-0.3,1.7-0.3,1.7l0,0l0,0C143.8,121.5,140.7,122.4,138.7,122.4z
				 M140,112.4c-1.5,0-2.7,0.1-3,0.6c-0.7,1.3-0.8,2.9-0.8,2.9c0,0,0.2,5,1.1,6.1c0.9,1,6-0.5,6.5-0.6c0-0.2-0.2-1.1,0.3-1.8
				c0.3-0.4,0.9-0.6,1.6-0.6c0,0,0,0,0,0l-0.3-6.2C145.1,112.8,142.3,112.4,140,112.4z"/>
		</g>
		<g>
			<path class="st0" d="M150.3,114.3c0,0-0.6,0.6-1.3,1.1c-0.7,0.5-2.4,0.9-2.8,0.8s-0.5,0.5-1.2,0.5c-0.7,0,0-1,0-1s-0.5,0.4-0.8,0
				c-0.3-0.4,0.9-0.7,0.5-0.7s-0.4-0.5-0.2-0.7c0.2-0.2,0.7-0.2,1.7-0.6c1-0.4,2-1.8,2-1.8L150.3,114.3z"/>
			<path d="M145,116.8c-0.1,0-0.3,0-0.3-0.1c-0.1-0.2,0-0.6,0.2-0.8c-0.2,0.1-0.5,0.1-0.7-0.1c0-0.1-0.1-0.1,0-0.2
				c0-0.2,0.3-0.3,0.5-0.4c0.1,0,0.1-0.1,0.2-0.1c0,0,0,0,0,0c-0.2,0-0.3-0.1-0.3-0.3c-0.1-0.2,0-0.4,0.1-0.5
				c0.1-0.1,0.3-0.1,0.6-0.2c0.3-0.1,0.6-0.2,1.1-0.3c1-0.4,2-1.8,2-1.8l0.1,0.1c0,0.1-1,1.5-2,1.9c-0.5,0.2-0.9,0.3-1.1,0.4
				c-0.3,0.1-0.4,0.1-0.5,0.2c-0.1,0.1-0.1,0.3-0.1,0.4c0,0.1,0.1,0.2,0.3,0.2c0,0,0.1,0,0.1,0.1c0,0.1-0.1,0.1-0.2,0.2
				c-0.2,0.1-0.4,0.2-0.4,0.4c0,0,0,0.1,0,0.1c0.2,0.3,0.7,0,0.7,0l0.2-0.1l-0.1,0.2c-0.1,0.2-0.3,0.6-0.2,0.8
				C144.8,116.6,144.9,116.7,145,116.8c0.3-0.1,0.6-0.2,0.7-0.4c0.2-0.1,0.3-0.2,0.5-0.2c0.3,0,2.1-0.3,2.8-0.8
				c0.7-0.5,1.3-1.1,1.3-1.1l0.1,0.1c0,0-0.6,0.6-1.3,1.2c-0.7,0.6-2.5,0.9-2.8,0.8c-0.1,0-0.3,0.1-0.4,0.2
				C145.6,116.6,145.4,116.8,145,116.8z"/>
		</g>
		<g>
			<path class="st0" d="M132.1,115c0,0,0.8,0.7,1.3,1c0.5,0.3,2,0.7,2.2,0.8c0.2,0,0.7,0.8,1.1,1s0.3-0.8,0.1-1s-0.2-0.3,0.2-0.5
				c0.3-0.2,0-0.6-0.2-0.6s-0.4-0.1,0-0.3c0.4-0.2,0.4-0.5,0.2-0.5c-0.2,0-1.2,0-1.8-0.3c-0.6-0.3-2-2.4-2-2.4L132.1,115z"/>
			<path d="M136.8,117.9c0,0-0.1,0-0.1,0c-0.2-0.1-0.4-0.3-0.6-0.5c-0.2-0.2-0.4-0.4-0.5-0.5c-0.2,0-1.7-0.5-2.2-0.8
				c-0.5-0.3-1.3-1-1.3-1l0.1-0.1c0,0,0.8,0.7,1.3,1c0.5,0.3,2,0.7,2.2,0.8c0.1,0,0.3,0.2,0.5,0.5c0.2,0.2,0.4,0.4,0.5,0.5
				c0.1,0,0.1,0,0.1,0c0.1-0.1,0.1-0.8,0-0.9c-0.1-0.2-0.2-0.3,0.2-0.5c0.1-0.1,0.1-0.1,0.1-0.2c0-0.2-0.2-0.3-0.2-0.3
				c-0.1,0-0.2-0.1-0.2-0.2c0-0.1,0-0.2,0.2-0.3c0.2-0.1,0.3-0.2,0.3-0.3c0-0.1,0-0.1-0.1-0.1c-0.1,0-0.2,0-0.3,0
				c-0.4,0-1-0.1-1.5-0.3c-0.6-0.3-1.9-2.3-2-2.4l0.1-0.1c0,0,1.4,2.1,2,2.3c0.4,0.2,1.1,0.3,1.5,0.3c0.1,0,0.3,0,0.3,0
				c0.1,0,0.2,0.1,0.2,0.2c0,0.1-0.1,0.3-0.3,0.4c-0.1,0.1-0.2,0.1-0.2,0.2c0,0,0.1,0.1,0.1,0.1c0.1,0,0.3,0.2,0.3,0.3
				c0,0.1,0,0.3-0.1,0.3c-0.3,0.2-0.3,0.2-0.1,0.4c0.1,0.2,0.2,0.9,0,1C136.9,117.8,136.9,117.9,136.8,117.9z"/>
		</g>
		<path d="M147.2,103.9c0.3-0.2,0.5-0.3,0.8-0.4c0.3-0.1,0.5-0.3,0.8-0.4c0.6-0.2,1.1-0.5,1.7-0.6c-0.3,0.1-0.6,0.2-0.9,0.3
			c-0.3,0.1-0.6,0.2-0.8,0.3C148.3,103.4,147.8,103.6,147.2,103.9z"/>
		<path d="M146.9,104.5c0.5,0,0.9-0.1,1.4-0.1l1.4-0.1l1.4,0c0.5,0,0.9,0,1.4,0c-0.5,0-0.9,0.1-1.4,0.1l-1.4,0.1l-1.4,0
			C147.8,104.5,147.4,104.5,146.9,104.5z"/>
		<path d="M147.2,105.2c0.4,0.1,0.8,0.2,1.2,0.3l1.2,0.3l1.2,0.3c0.2,0,0.4,0.1,0.6,0.1c0.2,0,0.4,0.1,0.6,0.1
			c-0.4,0-0.8-0.1-1.2-0.2c-0.4-0.1-0.8-0.2-1.2-0.3c-0.4-0.1-0.8-0.2-1.2-0.3C148,105.5,147.6,105.3,147.2,105.2z"/>
		<path d="M132.2,103.9c-0.7,0-1.4-0.1-2.1-0.2c-0.3,0-0.7-0.1-1-0.2c-0.3-0.1-0.7-0.1-1-0.3c0.2,0,0.3,0.1,0.5,0.1
			c0.2,0,0.3,0.1,0.5,0.1c0.3,0,0.7,0.1,1,0.1C130.8,103.7,131.5,103.8,132.2,103.9z"/>
		<path d="M132.3,104.7c-0.7,0.2-1.4,0.3-2.1,0.4c-0.3,0.1-0.7,0.1-1,0.2c-0.3,0-0.7,0.1-1,0.1l1-0.2l1-0.2
			C131,104.9,131.7,104.8,132.3,104.7z"/>
		<path d="M132.6,105.8c-0.7,0.2-1.4,0.5-2.1,0.7l-1.1,0.3c-0.2,0.1-0.4,0.1-0.5,0.2c-0.2,0.1-0.4,0.1-0.5,0.2
			c0.3-0.2,0.7-0.3,1-0.4c0.3-0.1,0.7-0.2,1.1-0.3C131.2,106.1,131.9,105.9,132.6,105.8z"/>
		<path class="st9" d="M149.7,92.5c-0.4-1.4-0.6-2.9-0.5-4.3c0-0.2,0-0.4,0.1-0.5c0-0.2,0.1-0.4,0.1-0.5c0-0.2,0.1-0.4,0.1-0.5
			c0.1-0.2,0.1-0.3,0.2-0.5c0.3-0.7,0.6-1.3,1-2c0.4-0.6,0.9-1.2,1.4-1.7l0.2-0.2c0.1-0.1,0.1-0.1,0.2-0.2c0.1-0.1,0.3-0.2,0.5-0.3
			c0.1,0,0.2-0.1,0.2-0.1l0.3-0.1c0.1,0,0.2-0.1,0.3-0.1c0.1,0,0.2-0.1,0.3-0.1c0.2,0,0.4-0.1,0.5-0.1c0.2,0,0.4,0,0.5,0
			c0.4,0,0.7,0,1.1,0.1c0.4,0.1,0.7,0.1,1.1,0.2c0.3,0.1,0.7,0.2,1,0.4c-0.3-0.2-0.7-0.3-1-0.4c-0.3-0.1-0.7-0.2-1.1-0.2
			c-0.4-0.1-0.7-0.1-1.1-0.1c-0.2,0-0.4,0-0.5,0c-0.2,0-0.4,0-0.5,0.1c-0.1,0-0.2,0-0.3,0.1c-0.1,0-0.2,0.1-0.3,0.1l-0.2,0.1
			c-0.1,0-0.2,0.1-0.2,0.1c-0.2,0.1-0.3,0.2-0.5,0.3c-0.1,0.1-0.1,0.1-0.2,0.2l-0.2,0.2c-0.5,0.5-1,1-1.4,1.7
			c-0.4,0.6-0.7,1.3-1,1.9c-0.3,0.7-0.4,1.4-0.5,2.1c-0.1,0.7,0,1.5,0,2.2C149.4,91,149.5,91.8,149.7,92.5z"/>
	</g>
</g>
<g id="Layer_1">
	<g>
		
			<image style="overflow:visible;" width="256" height="296" xlink:href="../imgs/parm1.png"  transform="matrix(0.531 0 0 0.531 22.0311 11.411)">
		</image>
	</g>
</g>
</svg>
